<mxfile host="65bd71144e">
    <diagram id="49RIrjuDXezO7WLikumY" name="Page-1">
        <mxGraphModel dx="2240" dy="1420" grid="1" gridSize="10" guides="1" tooltips="1" connect="1" arrows="1" fold="1" page="1" pageScale="1" pageWidth="850" pageHeight="1100" math="0" shadow="0">
            <root>
                <mxCell id="0"/>
                <mxCell id="1" parent="0"/>
                <mxCell id="2" value="" style="shape=image;verticalLabelPosition=bottom;labelBackgroundColor=default;verticalAlign=top;aspect=fixed;imageAspect=0;image=data:image/jpeg,/9j/4AAQSkZJRgABAQAAAQABAAD/2wCEAAQEBAQEBAQFBQQGBgYGBgkIBwcICQ0KCgoKCg0UDQ8NDQ8NFBIWEhESFhIgGRcXGSAlHx4fJS0pKS05NjlLS2QBBAQEBAQEBAUFBAYGBgYGCQgHBwgJDQoKCgoKDRQNDw0NDw0UEhYSERIWEiAZFxcZICUfHh8lLSkpLTk2OUtLZP/CABEIA9gFoAMBIgACEQEDEQH/xAAdAAEAAgIDAQEAAAAAAAAAAAAABAUBBgIDBwgJ/9oACAEBAAAAAPvQAAAAAAAAAAAAAAAAAAAAAAAAAAAAAAAAAAAAAAAAAAAAAAAAAAAAAAAAAAAAAAAAAAAAAAAAAAAAAAAAAAAAAAAAAAk5AAAAAAAAAAAAAAAAAAAAAAAAAAAAHGOCUAAAAAAAAAAAAAAAAAAAAAAAAAAAACKCUAAAAAAAAAAAV9eAAvuQAAAAAAAAAAAK6omgAqNyRQSjw351fR3tzyr1Uq/Kdx3mFqW9AAAAAAAAKXpOMSaAXPeEVKAAAAAAAAAACkuwAKS7RQSj5Nro9z9NfJ+t7xZ7R5vTbrRbH5d7Ppf1jMAAAAAAACl6XDx17L5/1dtBsm9lz3h8+9nvPmcDbKSkvt280vIO3UdV6f3gAAAAAAAKS7PCZu4d+vWLbbVSXaKCUfIOtyLz6C+YaHQ/bfN/ovxXu9++dvNfq35o+890AAAAAAACl6VL5R6pe+W8bXW8eyFz3h8/Q/ozV5VdRXGob9qfV298XjumxgAAAAAAAKS7NKlaji00ra7jeFJdooJRoviT2vfKuTiXElxUmNKiQrkAAAAAAAFL0gALiQAAAAAAAAAAACgvwAKO8RQSgAAAAAAAAAADpgAALUAAAAAAAAAAADrou4AFftaKCTkAAAAAAAAAAAAAAAAAAAAAAAAAAAAIoO3sAAAAAAAAAAAAAAAAAAAAAAAAAAAAHDpAAAAAAAAAAAAAAAAAAAAAAAAAAAAAAAAAAAAAAAAAAAAAAAAAAAAAAAAAAAAA7MgAAAAAAAAAAx1h2ZAAAAAAAAAAAAAAAAx1gScgAAAAAAAAAAMRiTkAAAAAAAAAAAAAAAAxGBKAAAAAAAAAAAEUlAAAAAAAAAAAAAAAABFBKAAAAAAAAAAAEUlAAAAAAAAAAAAAAAABFBKAAAAAAAAAAAEUlAAAAAAAAAAAAAAAABFBKAAAAAAAAAAAEUlAAAAAAAAAAAAAAAABFBKAAAAAAAAAAAEUlAAAAAAAAAAAAAAAABFBKAAAAAAAAAAAEUlB5P4T677iImp7uD5s+ksgAa15C+g3z9733AAAAAAAAABFBKAAAAAAAAAAAEUlB+f/AN/+N+UbjSazb+Weja96VoVR0b/6N8n+/af9IeGb3oGs+paWuuHt/wA3bH5R37LZ7Tov1hsIAAAAAAAACKCUAAAAAAAAAAAIpKD4R+j/ABLSLPefJfdNN0H0vTPpv5sd/rXkdHN+kZ/wj9Db/wCI61Xeo/XmufM3GoXOi/R/zf8AWProAAAAAAAACKCUAAAAAAAAAAAIpKDh496lq8LbPN/YPJ931HeZmt8ezq1n0Lzb1/Tvn76z8d9W0Huu9p69bx0Z7p9RpnsPYAAAAAAAAAiglAAAAAAAAAAACKSgAAAGMcgAAAAAAAAAAAIoJQAAAAAAAAAAAikoAAAAAAAAAAAAAAAAIoJQAAGKTnyAAAAY5WuQAAIpKCluI3Hu7onCR3DOEfujSsxZXT3AjRbMQJ7GVFe4yzgorjtOHVyz0zMGYuOUkAAAAiglAAAgQruqwYmTAABX9A7bKkk2QAAIpKDzuorr+LAs6f0jSe2ivJWNX9U885ytk85s+6xpfR/NO622HTufLnsWr5q73afPri+qIEb1Lyi6U87pv6jhbVG0xdL9E0WfB2fVfU7YAAAAiglAABS3Nd0XIR+mcAAgcpoxRS59bbAABFJQMZccjOMsZxkYM4yxnGcZxnAZxmNIMY54ywyxnBlhnGQAAABFBKAAFfzr7nsAp7gABS3QHGpscSAABFJQAAAAAAAAAAAAAAAARQSgABRz+M8BW8bAAFd2WICL21N2AAIpKAAAAAAAAAAAAAAAACKCUAAca7ougBjgADnkAU/ZZ5AAIpKAAAAAAAAAAAAAAAACKCUAAVVpUXAAAAAAp7iqtQACKSgAAAAAAAAAAAAAAAAiglAAFRb1FuAAAAAKi3qLcAAikoK+KAAAAAAAAAAAAAAE+WEUEoAAqLeotwAGI3VmR25AAVFvUW4ABFJQa3sgAAAAAAAAAAAAAAa7sQRQSgACot6i3AAh1WByuJAAFRb1FuAARSUFJdgAAAAAGBkYxy48gAAAAAFJdhFBKAAKi3qLcAFXBAW8sAFRb1FuAARSUFJdgAAAAAcPNIWtyNd9r0+txv8A5TL6PoLkAAAAABSXYRQSgACot6i3ADpowBsOQAqLeotwACKSgpLsAAAAABisooVbvsKFE2rWsZ3HkAAAAABSXYRQSgACot6i3ACoiACxsQAqLeotwACKSgob4AAAAAAAAAAAAAAKK9CKCUAAVFvUW4Aa9gAdt6AFRb1FuAARSUFNgAAAAAAAAAAAAAAOjYQiglAAFRb1FuAGugBy2AAKi3qLcAAikoAAAAAAAAAAAAAAAAIoJQABUW9RbgBr/EAd92AFRb1FuAARSUAAAAAAAAAAAAAAAAEUEoAAqLeotwArIAAs54AVFvUW4ABFJQYZAAAAAAAAAAAAAAMMhFBKAAKi3qLcAMa/gBy2AAFRb1FuAARSUEfiAAAAAAAAAAAAAAHKQEUEoAAqLeotwAdFIBm+5gAqLeotwACKSgigAAAAAAAAAAAAAASgiglAAFRb1FuABxpekSLjkABUW9RbgAEUlBFCv6rWB3xM2QAAAAAAAAAABrWygEoIoJQABUW9RbgAGMM5AAKi3qLcAAikoIrXdd9E8qoZ+obnoW9exgAAAAAAAAAAHiN9OrL+sjbpfJQRQSgACot6i3AAAAAFRb1FuAARSUEUNEs59bcuNoAAAAAAAAAAAU3VP6Y0vhMlJQRQSgACot6i3AAAAAFRb1FuAARSUEUAAAAAAAAAAAAAACUEUEoAAqLeotwOjiAACRkCot6i3AAIpKCKAAAAAAAAAAAAAABKCKCUAAVFvUW4Ma8AAB2XwFRb1FuAARSUEV53R1s606tt2gAAAAAAAAAAAAASgiglAAFRb1FuBw6QAAc+4Cot6i3AAIpKCK6cVUzomd3aAAAAAAAAAAAAAJQRQSgACot6i3AAAAAFRb1FuAARSUEVw7+wAAAAAAAAAAAAAOMXsSgiglAAFRb1FuADpqQF3kAFRb1FuAARSUEVmSAAAAAAAAAAAAABGwlBFBKAAKi3qLcAGABkAFRb1FuAARSUEVmTX+E+9y9OsZizrLLkAAAAAAAAAAAOHDujYSgiglAAFRb1FuAAAAAKi3qLcAAikoIrMnXfi37hs/HdWtMWeiemeqAAAAAAAAAAAGPHt72eNhKCKCUAAVFvUW4AAAAAqLeotwACKSgisyWubGMZxnGQAAAAAAAAAAAI2EoIoJQABUW9RbgAAAACot6i3AAIpKCK4TQAAAAAAAAAAAAAIfJKCKCUAAVFvUW4AAAAAqLeotwACKSgisdWQAAAAAAAAAAAAAx3EoIoJQABUW9RbgAAAACot6i3AAIpKCKAAAAAAAAAAAAAABKCKCUAAVFvUW4AAAAAqLeotwACKSgitchUm92AAAAAAAAAAAAAAEoIoJQABUW9Rbvgf5nAAAAH2V9jKi3qLcAAikoIqiq5FraAAAAAAAAAAAAAASgiglAAFRb1Fu/G/QwAAAB7v+qqot6i3AAIpKCK4c8gAAAAAAAAAAAABjhzSgiglAAFRb1Fu/G/Q/uz2b8rfTLmizN8r4gAHsen6Z7v+qqot6i3AAIpKCKSgAAAAAAAAAAAAAIpKCKCUAAVFvUW78b9D+j/AEL4u2+fr20cPP8AiAAbBX1/u/6qqi3qLcAAikoIrMlT2vPr5ssR5IdPZnPDmFfYBw59fYAAAAAAABGwlBFBKAAKi3qLd+OWgAAAAD3v9UVRb1FuAARSUEVmTS6Nvtt4Fd1GyQNmi0Fdbxdy0rqlyO2T2dunbxo13108/nb19Ld+xAAAAAAAAjYSgiglAAFRb1Fu+a/noAAAAfU3uaot6i3AAIpKCKzJ4VF0gdFFLzPnVNrV2ujNqm65LkdfRZ8JcDqkyolh4v7D0WwAAAAAAAI2EoIoJQABUW9RbgAAAACot6i3AAIpKCKSgAAAAAAAAAAAAAIpKCKCUAAVFvUW4AAAAAqLeotwACKSgiuHPIAAAAAAAAAAAAAY4c0oIoJQABUW9RbvmLyIAAAAz7/70qLeotwACKSgigAAAAAAAAAAAAAASgiglAAFRb1Fu+BdZAAAAHpn2oqLeotwACKSg4dAAAAAAAAAAAAAAAd/MIoJQABUW9RbvgXWfpfY/kXbunqseHfpGAAG/UOv+mfaiot6i3AAIpKAAAAAAAAAAAAAAAACKCUAAVFvUW74F1n2fZfnOZcZ497VQAC0ixfTPtRUW9RbgAEUlAAAAAAAAAAAAAAAABFBKAAKi3qLd8EasAAAAPT/ALRVFvUW4ABFJQAAAAAAAAAAAAAAAARQSgACot6i3eS+VgAAAHH2f0lUW9RbgAEUlBxjgAAAAAAAAAAAAABI5BFBKAAKi3qLcAAAAAVFvUW4ABFJQRQAAAAAAAAAAAAAAJQRQSgACot6i3AAAAAFRb1FuAARSUEUAAAAAAAAAAAAAACUEUEoAAqLeot3y346AAAAPob6AVFvUW4ABFJQRVdXbFoseyoLvT+Hs4AAAAAAAAAAB5Zt/dCl2FXcy0oIoJQABUW9Rbvz51cAAAAen/b6ot6i3AAIpKCKrq7YvGo2wadvNRQe+AAAAAAAAAAAHk0+4gy6nv2e9SgiglAAFRb1Fu/PnV/fPQfkK7te/E+h1gAA9AoNe9P+31Rb1FuAARSUEUAAAAAAAAAAAAAACUEUEoAAqLeot3586v6nd+I7D0WfV211GAAWkWL6f9vqi3qLcAAikoIoAAAAAAAAAAAAAAEoIoJQABUW9Rbvz71UAAAAeo/bqot6i3AAIpKCK12v59Nv1WViAAAAAAAAAAAAAJQRQSgACot6i3eP+UAAAAD2z0tUW9RbgAEUlBFavC1W/jTdgvAAAAAAAAAAAAABKCKCUAAVFvUW4AAAAAqLeotwACKSgisdWQAAAAAAAAAAAAAx25SgiglAAFRb1FuAAAAAKi3qLcAAikoIrjMAAAAAAAAAAAAAAhc0oIoJQABUW9Rbq6IAAAALKUqLeotwACKSgisyQAAAAAAAAAAAAAI2EoIoJQABUW9RbqPpAAAAEy2VFvUW4ABFJQRWZPnvzZ9J+heQWtpqN7V31B64AAAAAAAAAAAx5jd7pGwlBFBKAAKi3qLdR9IAAAAmWyot6i3AAIpKCKzJrPJvVLinqK2RO16zbyAAAAAAAAAAAVtjmNhKCKCUAAVFvUW6j6QAAABMtlRb1FuAARSUEVmSAAAAAAAAAAAAABGwlBFBKAAKi3qLdR9IAAAAm2qot6i3AAIpKCK65PMAAAAAAAAAAAAAOvo5pQRQSgACot6i3dcQAAAATOaot6i3AAIpKCKAAAAAAAAAAAAAABKCKCUAAVFvUW4AAAAAqLeotwACKSgiovLrmAAAAAAAAAAAAAAJQRQSgACot6i3AAAAAFRb1FuAARSUEVpGuwPRNkAAAAAAAAAAAAAAlBFBKAAKi3qLdXRAAAABZSlRb1FuAARSUEUAAAAAAAAAAAAAACUEUEoAAqLeot1H0gAAACZbKi3qLcAAikoIrhMAAAAAAAAAAAAABmD2JQRQSgACot6i3UfSAAAAJlsqLeotwACKSgisyQAAAAAAAAAAAAAI2EoIoJQABUW9RbqPpAAAAEy2VFvUW4ABFJQRWZOPOdqvfMLmLc88VW3VVrX21D29fXW3UaXGzA7ay+6c2dbFp9g57OAAAAAAAI2EoIoJQABUW9RbqPpAAAAE21VFvUW4ABFJQRWZNDrPojzfnrlnW7bK80u6q8TKa1g111U7Dwrt50yy0q62DS/SfPav1+DuQAAAAAAAjYSgiglAAFLdVFu64gAAAAmc1PcU9wAARSUEVmSAAMZAAB047wAAAAAAARsJQRQSgACvn1NuAAAAAKe3gWAABFJQRXXNAAAAAAAAAAAAABmFzSgiglAAGKhcAAAAADX+65yAARSUEUAAAAAAAAAAAAAACUEUEoAAUl1VWwAAAACnuKO8AAEUlBH4gAAAAAAAAAAAAABmSEUEoAAcK6R1WIAAAAKzsj2nMAARSUDGQAAAAAAAAAAAAADGQRQSgAAix51N22HYAAADqgcLeskTwAAikoAAAAAAAAAAAAAAAAIoJQAAOFLNsOrIAAAOXKugXvMAAEUlAAAAAAAAAAAAAAAABFBKAAAYp+QAAADjb8gAAEUlBhkAAAAAAAAAAAAAAwyEUEoAAAAAAAAAAARSSDIAAAAAAAAAAAAAAYBGBKAAAAAAAAAAAEUlAAAAAAAAAAAAAAAABFBKAAAAAAAAAAAEUlAAAAAAAAAAAAAAAABFBKAAAAAAAAAAAEUlAAAAAAAAAAAAAAoPj2CAejfVIRQSgAAAAAAAAAABFJQAAAAAAAAAAAAAPD/isAZ/UMIoJQAAAAAAAAAAAikoAAAAAAAAAAAAAHiHxUesadVy66EfqIEUEoAAAAAAAAAAARSUAAAAAAAAAAAAADxD4qPojss4XnPmZ+ogRQSgAAAAAAAAAABFJQAAAAAAAAAAAAAPEPioAP1ECKCUAAAAAAAAAAAIpKAAAAAAAAAAAAABpHwDAAPRvv4IoJQAAAAAAAAAAAikoAAAAAAAAAAAAAAAAIoJQAAAAAAAAAAAikoAAAAAAAAAAAAAAAAIoJOQAAAAAAAAAAGIxJyAAAAAAAAAAAAAAAAYjAAAAAAAAAAAAAAAAAAAAAAAAAAAAAAAAAAAAAAAAAAAAAAAAAAAAAAAAAAAAAAAAAAAAAAAAAAAAAAAAAAAAAAAAAAH/8QAHAEBAAICAwEAAAAAAAAAAAAAAAQFAgMBBgcI/9oACAECEAAAAAAAAAAAAAAAAAAAAAAAAAAAAAAAAAAAAAAAAN+QMNIAAAAAJXIMI4e1c+KAAAAAWGV9VSs6nVCAAAAABLidhgbY8CXED13jyMAAAACw3WEaVvo9UIAAAAAEuJYTOdFTLiAAAAAANuQMNYAAAAAJGYNegAAAAAAAAAAAAAAAAAAAAAAAAAAAAAAAAAAAAAAAAAAAAAAAAAAAAAAAAAAAAAAAAAAAAAAAAAAAAAAAAAAAAAAAAAAAAAAAAAAAAAAAAAAAAAAAAAAAAAAAAAAAAAAAAAAAAAAAAAAAAAAAAAAAAAAAAAAAAAAAAAAAAAAAAAAAGcgAAAAAABjGAAAAAAATIYAAHJwy44AABMhgAAAAAAJcQAAHN9b6MNNjS0QAAJcQAAAAAABLAAAAAAAN1cAAAAAAAAAAAAAAAAAAAAAAAAAAAAAAAAAAAAAAAAAAAAAAAAAAAAAAAAAAAAAAAAAAAAAAAAAAAAAAAAAAAAAAAAAAAAAAAAAAAAAAAAAAAAAAAAAAAAAAAXNMAAAAAAAAAAAAAAAAAAAAAAAAAAAAAAAAAAAAAAAAAAAAAAAAAAAAAAAAAAAAAAAAAAAAAAAAAAAAAAAAAAAAAAAAAAAAEesAAWm8AAAAAAAAAAABSUuWpzqAzx7JbgAAAAAAAAAAAKSjy1c86wOeOy24AAAAAAAAAAADVBAAT9gAAAAAAAAAAAC37mAA6RWAAAAAAAAAAAAPSvT40/WngRtnjXn4AAAAAAAAAAAD0r1TDfrylAYZeK9AAAAAAAAAAAAAT+zAAOqxAAAAAAAAAAAAAAAAAAAAAAAAAAAAAAAAAAAAAAAFzTAAAAAAAAAAAAAAAAAAAAAAAAAAAAAAAAAAAAAAAAAAAAAAAAAAAAAAAAAAAAAAAAAAAAAAAAAAAAAAAAAAAAAAAAAAAAAAAAAAAAAAAAAAAAAAAAAAAAAAAAAAAAAAAAAAAAAAAAAAAAAAAAAAAAAAAAAAAAAAAAAAAAOy34jdEAAAAAAAAAAAAAB773mulbcvkkAAAAAAAAAAAAAHvvees67+X8kgAAAAAAAAAAAAA7r2YRfLgAAAAAAAAAAAAAAAAAAAAAAAAAAAAAAAAAAAAAAAAAAAAB//xAAbAQEAAQUBAAAAAAAAAAAAAAAAAQIDBAUGB//aAAgBAxAAAAAAAAAAAAAAAAAAAAAAAAAAAAAAAAAAAAAAAAAAAAAAAAAAXVoAAAAAqggAAAAAAVQQBcWwAAAACRAAAAAAAkQAAAAAAAAAAAAAAAAAAAAAAAAAAAAAAAAAAAAAAAAAAAAAAAAAAAAAAAAAAAAAAAAAAAAAAAAAAAAAAAAAAAAAAAAAAAAAAAAAAAAAAAAAAAAAAAAAAAAAAAAAAAAAAAAAAAAAAAAAAAAAAAAAAAAAAAAAAAAAAAAAAAAAAAAAAAAAAAAAAAAAAAAAAAAAAAAAAAAAAAAAAAAAAAAAEwAAAAAAAAAAJkIgAAAAAAAAAAAAAAAAAEwAAAAAAAAAAAAAAAAAAAAAAAAAAAAAAAAAAAAAAAAAAAAAAAAAAAAAAAAAAAAAAAAAAAAAAAAAAAAAAAAAAAAAAAAAAAAAAAAAAAAAAAAAAAAAAAAAAAAAAATAAAAAAAAAAAAAAAAAAAAAAAAAAAAAAAAAAAAAAAAAAAAAAAAAAAAAAAAAAAAAAAAAAAAAAAAAAAAAAAAAAAAAAAAAAAAAbntgAHCasAAAAAAAAAAAB6f6hazlGxAxbviXnYAAAAAAAAAAAD0/1e1m26c4CifDvPAAAAAAAAAAAAGf1IADk8MAAAAAAAAAAABh6YABvMkAAAAAAAAAAABzXM3MetjgXaOz34AAAAAAAAAAADmuWmiqLQEu034AAAAAAAAAAACxrAAG0vAAAAAAAAAAAAAAAAAAAAAAAAAAAAAAAAAAAAAAAJgAAAAAAAAAAAAAAAAAAAAAAAAAAAAAAAAAAAAAAAAAAAAAAAAAAAAAAAAAAAAAAAAAAAAAAAAAAAAAAAAAAAAAAAAAAAAAAAAAAAAAAAAAAAAAAAAAAAAAAAAAAAAAAAAAAAAAAAAAAAAAAAAAAAAAAAAAAAAAAAAAAABVIUAAAAAAAAAAAAAAu1xJjgAAAAAAAAAAAAAu10qmOAAAAAAAAAAAAACqoLYAAAAAAAAAAAAAAAAAAAAAAAAAAAAAAAAAAAAAAAAAAAAA/8QAPRAAAAUDAwIEBAUEAQMEAwEAAAMEBQYBAhQHExUQFhE2QEYIEhcwGDRQYHAgISY3MTI1QSIkgJAjMzhH/9oACAEBAAEIAP8A6HyiqeHzXfxYaXb4fNb/AD+vU3Xm1Lt+7S6ttaVohOqeXWt37IfnAxpaVSkgqFMJlnzu/YkHHYkHHYkHHYkHHYkHHYkHHYkHHYkHHYkHHYkHHYkHHYkHDw1JoijMeWX7esWqDpCzkDUzGau6jmV8al6u6kF18bdGtUXSZnL2l56Q/WRtmE6fYiR1kbyXHGB7eTWvXJC76bSeaI9K9QvqZGTHzo/u5TCwvjtdphqSi1PZlzok/UlX5g3+itaW0rdcjcEDhbfcj+y0/wDQd/U5PDSzk2nOTRIWJ9tM4z9gzL/tCP7078jzL7mqzNWT6yMrNVAsjUieXhkLOlllHJnbZFpUzXRjWR6ZrZVIUcSjbw/LYvqJ8RM/qvfY78PrpVZrLMXVWi1Q1e1XfHgvT2I6uaguDjKYI96HatuM3Y5PfI2DUab6lQ3WRa5aRO6lh0D1IdErVqbJU2gDnLkzXqRr9NYcU7R6HaoumpOjuqdrvpRqig000kkR9Kz7UuH6WuUwlzLL/iCdmRNJmiPOa10Ymtc4/p6r8wb1vvsLsvvveX9ymaJYQ1WoWhFqBFyo6Ik5r10gnadStkCZnkslNPQ6goVq9lT3RKa3WoiUisidJla88hN1af8AoO/qtOUO1ja/3OKBcSdJKHNrjyTS2LqTl1OImMfbzmea3sh8uvvM1ESWpUhgf9Q7rYzI729mkDnYrY0iqOzkxPGYnYexyFG/Nq49NDW2VyKIN72Uz6l2LGNjNMkmpJyaPKFTSplykkpFbZbLED66afq0sXnZ6SNslV7I60eEOR+pzL/tCP8AodHnI1Dmzc6R3U05qj+Q8G6i+BxCJMyaiML24sqNNWct789wk9Lbqq13bCwLdVGBqZ3FxUt8nRuj+7MyfpO/I8y+5retWsGqDU6pFDppC8Lb3lfWcQ1c62yZ20QXLn/VB1dlesbAuk+mcsa0GimuUTgsNOYXzRW1RKtVdRrVETj8EZnl/ZNTNFmDTp01Eq4RXVYlz0pn87SNjREaw34cH5Ebp5//ADbqqEH/APJ70NC/7aFsI0K/1lr6IvBXlXBlE9ZF+ssfmGkyt2VSVv0bJjtj7EtJnF+d9O4qvfv09V+YN6yJtMeWF4biqkOL62x2PLWKOM8bTGJ20JmGbsz5J1rW4w5/dFMkVnK4q4H0gHysen77G1Njo3LYI+q3qi23q0/9B39T9FXBoWFtrgjYFritXIImlTEo0ydMS7xcxxmLG8my6OXvUUdmVtkMZdVKqMuzSfBX90QzNU4L4i5KnSLK7L9LnGxBFTREI4axtS4k1gjOo7HHErAQ56Vkp08bq2HaeLTYg7txbzGZi+rmlYuYYA8M1YPU4nT96IjbY2HQtlcY2y1RLv1KZf8AaEf9DbCri5tM31xlkYVvKiGGo5ZpuscJQrf0Lrpm6Gw9jQtSnTu+h+mxSJu0ecEGM21VaaXOE4dXU/TiHuERaVpbt0nfkeZfc1A00Z9Qk6Xfv+Glx8a7Zfw0uNa//lgGm7Pp4QqqnB0Vip7jVzMIZGVGuUL0rzHI4+0sq7oW5vak1iVA5MTG73k3uB6dOqIOTqC2CPpkClATVhj9jfc2WpUKFuRWI0iVgjyBMsTo29oaWogxO3oY/HWgw29usg0JLV0WWfqCr/8Aed99rr4WHV/ZMvs+VnS3V+7OqUthEwpT9mrENTbqmFcerGAsGAsGAsGAsGAsGAsGAsGAsGAsGAsGAsGAsGAqp/1EFUJLpb+yXVtSObYsQKSHGUtpdidb3C7juF3HcLuO4Xcdwu47hdx3C7juF3HcLuO4Xcdwu47hdwcQ9yK8lOt+xSvjT+La/wBv67Da208BuWDcsG5YNywblg3LBuWDcsG5YNywblg3LBuWDcsG5YNywblg3LBuWDcsG5YNywblg3LBuWDcsG5YNywblg3LBuWDcsG5YNywblg3LBuWDcsG5YNywblg3LBuWDcsG5YNywblg3LBuWDcsG5YNywblg3LBuWDcsG5YNywblg3LBuWDcsG5YNywblg3LBuWDcsG5YNywblg3LBuWDcsG5YNywblg3LBuWDcsG5YNywblg3LBuWDcsG5YNywblg3LBuWDcsG5YNywblg3LBuWDcsG5YNywblg3LBuWDcsG5YNywblg3LBuWDcsG5YNywblg3LBuWDcsG5YNywblg3LBuWDcsG5YNywblg3LBuWDcsG5YNywblg3LBuWDcsG5YNywblg3LBuWDcsG5YNywblg3LBuWDcsG5YNywblg3LBuWDcsG5YNywblg3LBuWDcsG5YNywblg3LBuWDcsG5YNywblg3LBuWDcsG5YNywGG/NT5bf/AI30KMqNkwbJg2TBsmDZMGyYNkwbJg2TBsmDZMGyYNkwbJg2TBsmDZMGyYNkwbJg2TBsmDZMGyYNkwbJg2TBsmDZMGyYNkwbJg2TBsmDZMGyYNkwbJg2TBsmDZMGyYNkwbJg2TBsmDZMGyYNkwbJg2TBsmDZMGyYNkwbJg2TBsmDZMGyYNkwbJg2TBsmDZMGyYKlGU/5/poUZUbJg2TBsmDZMGyYNkwbJg2TBsmDZMGyYNkwbJg2TBsmDZMGyYNkwbJg2TBsmDZMGyYNkwbJg2TBsmDZMGyYNkwbJg2TBsmDZMGyYNkwbJg2TBsmDZMGyYNkwbJg2TBsmDZMGyYNkwbJg2TBsmDZMGyYNkwbJg2TBsmDZMGyYNkwbJg2TBsmDZMGyYNkwbJg2TBsmDZMGyYNkwbJg2TBsmDZMGyYNkwbJg2TBsmDZMGyYNkwbJg2TBsmDZMGyYNkwbJg2TBsmDZMGyYNkwbJgqUZT/n+uy35afsW+35qf0WW/LT9yX2/NT/72dV9Y2TTAghPcVrF8Q69LzSPR/XJu1FONaF/9D48t0ZZnB4ctPNS2jUlA7L2r+rXXUXUiHSJoSRZsOOUNrecf92dPqyLw2RviPTXVqWTyB6gvKnQaez+ZrJIVK+muerkl0vWRwlna1xq9oa1Zn8HkJy598TilG8f8BZoSzX6jEzhAz6hTNR8RRsbN+JaZSeHtcVNYZ1q5KoppDp0uRIW7Xw5lRyOPauU1ffoAkdVOh7Jqw4pDVER1C1hncgnRkH08kD38QujtyF0edT9WHJdo3G5dGGF2+IfUaHIVbHp5rFrJJyFUSalOoOsukk5bkMq+JKfzKHySPJmHU1j1kd3FlPhDnqJrW2yYyNWaq6wSqDN0UibbIm34kIAyVlSzSbUS3UeHp3e/wCISW6hQCUMa9m1j1SvY9Lmd4YLNWZXp9pMyu702IvialDHZK0mg+tLnOlS2PSP4cNQ5rL5i8In34jtQpnDpgzomH4lp3Loc4RMth0+c9dZhLIzIXDWP/V04Hw5qlCHTPVZWm+HGdy6X9887pzqjrVKHJeytC/UDWbSCZIEsp+Lz/ucHE81gfD7IjBtP9Q5ZOdH9N2mxQ1oteXJgRyVggjhJ3WMNyiUfwZq0yvWlOrqSdIUfxDaUKmuxcbDp7qHqxq1UxlUvCCH/EwvdHv4kdRozM7Y83x6QySCN2j+mTRMpnpxAI2wmSSJNb9Ipp8M8hWOnwyz+JRpjfGp4Z3CmkOva9RIPiG1chckiCdgYZUwOEd+GiKlL/h3/wBOw8fCt4U1Fk4+Kv8A2LGR8W/myLDXrVo2EsKKPNOganS2Hl3SSSfEU3WGztmlFXSD6BN7PRyroIxRlph6pZHNeoh3hpy8FkxEh61Pe4BDD/iujKmjdD3ZFDdftOU0CZr1/wAOLavkOqL1Kbfh8lLHAZ68VknxAzdmnc1TLWX4vP8AucHESu8InF7aax/6unA+H7/VOr4+E3//AEcfCV51kg+LXzrGx8Xn/c4OG0p2+HycsLyfrDPNN1cPYL32W6c6csrAbJ4j8P0ofpZp2lWPX8GOje2uyI9A4n/DvpFcr3wwxxjjDfYgZpppVA50pKVvh+i2mBrMjZjFEHiiuNpY0pI+HLSMo+hwSt7egQkt6QzQHSu11JcypfBIfNyCin9j0M0uji0tcllsRjc2bC2yQMEeZ4mzI2Zmi2mEEgziqcmGW6YwSauSZxf5bphBpypSK5FKdJ4BNV6Ze/8A4d9HQsiUYWx1NG1ZHw8aRoldqoEJyEpBKcjUqXFQWEPr5X4VIdRI3PMvVLEaRelUJVin4eNIzFe+GViZY03FNjNJtE9NZS7Guzk7aL6Xu5TYSsl+m0MnhyE2RpUqdAkSpE7sytz61Lmpyj2m8LizU8NLPE9NoXBuS7eiWmMEgqxSujsv0wgk4WJ18il+m0MnhyE2RyCExaTsRDG8IdMoG0sCuPEU+HTSQpTQ4IkCJqRJ0CD+IViFEvLtLWJ05CUmwlP/APBataW0rdddKGw6tS26i2Unf2I8ZmP8zH+Zj/Mx/mY/zMf5mP8AMx/mY/zMf5mP8zH+Zj/Mx/mY/wAzH+Zj/Mx/mY/zMf5mP8zH+Zj/ADMf5mPGZiq+Vp6eJ1krbLLrbHClaXUpdb6t+k6WOmN9h111tltbrm90KWuLqjsvdk5Tq1N9pLlS95WNthZhZtvzFqndMlXsyK25+TpymzkHN14+9qLs3LPmttFphd9b6WbhfzUtFhhZlLq2WnFX/P8AL40/sKGl1MqXRU5lpXNob6olZihIQce5OxbUnbzra320+bxsMsNtpfYyPiZ6QkqrbzCy62Uv5cvnqM4sNKvuMtt+a3+wpWlfHwtNKuvvstqaXS6ywGHFk0/9TW8Jl7EieB3EjonjpxFhhZtPGyw0sz5vkoYXW/5KXmFlW1uvOd06Z5bmy+hhd1nz0sMLvspfZU8illb60rStKVpaaVdffZa3ylMtvYC7PGnjWguNKss+e7xp/YVutp4+NL7LqXVtoaXW+pdNwv5qWiw0q+4y21NJTVnK4iJ1LWr3tJQsws235iyzSzaVqX408PELDzyCrbiLXhvMPckxTO5pXVtbVZaxyRNd6EtQmeEpji6orr77C7br76XW3W0up40r4C6+y22666l9lbbbqWOxFHlM1WOTwnbcKganXlTHez9UcnzHU0b0FkeuW3WHyCyywuy2yw6Tx9MdeTd3QVX+9ncw7mFZP4f3DY+Ni42qYv0C5/a24+iY3ueg7mHcw7oKt/uYmlUdPNsT0ussMtusvvjVzfdU5ga3veUUbl/qr0jxJV8nWJaLyFBcRJkptrXQma1Z0F0SunUerHHQpSriyl0svJuvSSo9jLuhlZVAu3LUjPWMQVa5JqkOMoIxbWqtWTUZxb40Q3Gv7Ga1IGFq7FgKij431a3OWoWK0mKLnmPJ4w0FuLgpTtFWFInPtjNljz5shYjraidS9LyFq1NejJfULWaSzVjjknXwU1Gbe/Fp0t0RtiDxYY5WW2vz9WRmp3wrxISE0iRqyJlxWhS8mhnyRyl5MaUOJsdPbb5BBTkFzQ2Fae1drT+17nOXFSWPoSHHTZlTHJEsccI9p0jSviI1uVT1ExthKC5cYe1kM7a3R/TRemnNiG5aw3qmlI0vTpByr1PGNyN9QmWUTnM00IIkTegapE0kViVuHGVl5cdPbb5BBTkEd/M6ciXqFcbcSH1DVtZmJ3akUiQnp23txwvfVyR2S6kGpFTY3tcddE6FD2wczQq1kKaa3MuoS9vL7TPXRMmLrGNkKh8rUlyKxSYZNaFlJm44mUmJoUe3UeXEpK6tK1e7u8WTXqDHljPkJqdLHkEulpVyNnbG2K6aL0s6RM93bKxxbWSPvEokZhpXz4EHz4OjKIaXKhZNrgT4G1tTpSe1Fj8tSoVyZ4Ib3VBVve6JWOtYRUuCcTHbEtp8lqR+pOS9UcroztTY1I2lPUlM4v1SlVzc2duVcaW3vydOnSFWEp/6HZkRu6ahRrC5HuDWUYq+8+LzUDYYYnZmdMzpal2f0KE6dUVcSoNjd7d8pjC3yDdVYDk4tCJ1TUJVNbiqTqrmh29VWlLqeFR8ltba2gooogookmlKUp4UpSlPHwrSlaVpUsggm868sUpSnj4dKUpTx8B4U8a1/ppSltPCnhTxpUVpSvh4jwpSta9aUpTx8BWlK1pWopSlPHwFKUp4+ArSl1PCorSlaVpUVpS6nhUUpSnj4ByayXBU0qDa0pdTwrWlK0rSoVp7VaVSnuQIym1EiSWClKU8fDpSlKU8KUttt/46VpStaVqK0pWlaVFaUup4V6VpStK0rSlKUpSg8KUrWv6m9uFzWg+cpla6NSP5L3JatVq6NDUgb0bOktSpP64/WhDhKEV33n6lpq+LIbP63NsRu6S9Kral65KsqzOr002u6Pboxudzqhoad/BySyjpJVimr452tDaepoytVWtHWw37Ds2KqKU7q2JpWzX30IV82zDm2Yc2zDm2Yc2zDm2Yc2zDm2Yc2zDm2Yc2zDm2YKpYzFXXEpWhtVWqVDo4/YfWvkkFbCmVw5NuTqKqvBpkqNVb/Bp5xacg44yJEmFR5tMOWVo4ShAmr9o4klRZUs7hGYcIzDhGYcIzDhGYcIzDhGYcIzDhGYcIzDhGYcIzAkglPZQsn7SWnHylwTiVE3nR9xvIIOLUEEnF/wAGTK+62LP1LbbbbLbbbWLwNdJYqr+hPtdl0iaql9lpll1l0NuuuirBbd/Bky8tuXSM+4P0OTe3+kN8ttvqHF/Z2g4lOr7yaB3k0DvJoHeTQO8mgd5NA7yaB3k0DvJoHeTQO8mgd5NA7yaB3k0DvJoHeTQO8mgd5NA7yaB3k0DvJoHeTQO8mgd5NA7yaB3k0DvJoHeTQO8mgd5NA7yaB3k0DvJoHeTQO8mgd5NA7yaB3k0DvJoHeTQO8mgd5NA7yaB3k0DvJoHeTQO8mgd5NA7yaB3k0DvJoHeTQO8mgd5NA7yaB3k0DvJoHeTQO8mgd5NA7yaB3k0DvJoHeTQO8mgd5NA7yaB3k0DvJoHeTQO8mgd5NA7yaB3k0DvJoHeTQO8mgd5NA7yaB3k0DvJoHeTQO8mgd5NA7yaB3k0DvJoHeTQO8mgNr+0O5phCX1Uy8tuXSM+4PvmHFFf9dznZbTwsq6n/APijqf8A+SnQrwpS+wywynjb96Te3+kN8ttvqIWUWYwo3i79szki0thWPBXqpl5bcukZ9wfdrXwp41VuNbq1sJrWta+Nf6LbrrK0rakcfHwsO+7Jvb/SG+W231EE8jw39IOOJTl3GnWX2GWWX2VUJyzSSbzzyExdxp/9Fa0pSta2OTZ86Qu0Fqkxhp5Nn6NO/I8y9XMvLbl0jPuD7qxTuV+Sz7Des8K0JM+5Jvb/AEhvltt9RBPI8N/Rlhp6ZGqNSwWRy5zfZImcdXHdqsti8ccYvqDawabu9qJxMlKDUjTc+TTF8mkl00PfFmoUldow3sZzWpn8libjJ0UhY9RZSrXtCS5Lq26n9l/PF35zksff3JVAl1hP0OSArUSe2w1FL7+61bFqNP2trT0UWkE0Ufos78jzL1cy8tuXSM+4PuLTdkn5afaSn7xVLrvtyb2/0hvltt9RBPI8N/RykyYip1xVIu3VkqiQmvGnMcd1j6qUodN25I8s7uoO0dYL0BzWH+MoJGU1lrF8IZHR4cXRYzQchkVolV30yi5ZMwJo1saFjj6NkSt+njIzmw8xPdpyw0htYiHTTePOZ0kPUpSbk6cgm/8ARZ35HmXq5l5bcukZ9wfcXG7qkyv2207bOrbX7cm9v9Ib5bbfUQK+y6GRkqn7ZnPy0hklIp6qZeW3LpGfcH26/wBhWvjWtftkXfIcVd9yTe3+kN8ttvqFEfWEK1Kxlw5wMOcDDnAw5wMOcDDnAw5wMOcDDnAw5wMOcDDnAw5wMOcDDnAw5wMOcDDnAw5wMOcDDnAw5wMOcDDnAw5wMOcDDnAw5wMOcDDnAw5wMOcDDnAw5wMOcDDnAw5wMOcDDnAw5wMOcDDnAw5wMOcDDnAw5wMOcDDnAw5wMOcDDnAw5wMOcDDnAw5wMOcDDnAw5wMOcDDnAw5wMOcDDnAw5wMOcDDnAw5wMOcDDnAw5wMOcDDnAw5wMOcDDnAw5wMOcDDnAw5wMOcDDnAw5wMOcDDnAw5wMOcDDnAw5wMOcAlhVnLE6t49VMvLbl0jPuD7d/8A0X/cs/67PuSb2/0hvltt/g2ZeW3LpGfcH3L7a2XXW/bS2bigq37km9v9Ib5bbf4NmXlty6Rn3B9xxJ2z/mp9puLp815lftyb2/0hvltt9RW6loyBkjJGSMkZIyRkjJGSMkZIyRkjJGSMkZIyRkjJGSMkZIyRkjJGSMkZIyRkjJGSMkZIyRkjJGSMkZIyRkjJGSMkZIyRkjJGSMkZIyRkjJGSMkZIyRkjJGSMkZIyRkjJGSMkZIyRkjJGSMkZIyRkjJGSMkZIyRkjJGSMgUupd6uZeW3LpGfcH3FRNDyq0FaVpWtK/YstuvupbaUXQou2yn25N7f6Q3y22+ouurddWv7aturbdSvq5l5bcukZ9wfdXIqmeJpX9dKVurSlEiSie3cM+5Jvb/SG+W23+DZl5bcukZ9wfeVoizaVvoanNJr4X/0FJjTf70ITFp6eP3pN7f6Q3y22+tQOrc6ZWEme2tW5rmskNzo3uxFyhCqVJ0KY9SpTvLWrUkJSE7w2K1ytAn/YtkwjF99tlP0OZeW3LpGfcHoL0ie//mrWnFGtNQWJiC/+Pvyb2/0hvltt9U/8b/7TN/xrppf71D+/Oja8an3o0zpK21/gtV2nr05Hq0MdT6wq7yGMkqyJpaOEuPSXQtoQsOoMtbkP7FaVzyuZSI4YYseVLi7o06dU/u7g1o1FqyQlsCl5ML5R9WP11iCWqik6JzcL18iquSNKmOKHRS2Uq5+smXlty6Rn3B+hyb2/0hvltt9afppCVKhQoNvhcaMtcbbjY80Hnsx5lIPF6JUyW10aG56TWJl6Npb0CpxVpiGVsTOq51K/YpkeZzmu1qMWRppXG1NNJbECdQUoJqyNdyA9BVfGWdxUGqD1bO2LiURKhxZG90MJNUIkSVuTEpUvrJl5bcukZ9wfocm9v9Ib5bbf4NmXlty6Rn3B9g1eWVf8tOXHLjlxy45ccuOXHLjlxy45ccuOXHLjlxy45ccuE64o+7wr/XJvb/SG+W23+DZl5bcukZ9wf13ePhXw9GV47pfy/wBcm9v9Ib5bbfVT8nKPgyetEiyNrGpQetlMuVIHlOHtS9M0kdnRQ4yGUNitS00cn6ZI+euTsC51NWvqBy/dky8tuXSM+4PsHtpZt9breIHEDiBxA4gcQOIHEDiBxA4gcQOIHEDiBxA4gcQCEhZF3zfYk3t/pDfLbb6o1MnPvTGGnpUqmpVT00YjaIpWSmKaWsgqpJSJgYm0iidFegQmZFL7E5BZpxtn7smXlty6Rn3B+hyb2/0hvltt9Vfdf81lhdUF9LfG/jhxw44ccOOHHDjhxw44ccOOHHDjhxw44ccOOHHDjhxw44ccOOHHDjhxw44ccOOHHDjhxw44ccOOHHDjhxw44ccOOHHDjhxw44ccOOHHDjhxw44ccOOHHDjhxw44ccOOHHDjhxw44ccOOHHDjhxw44ccOOHHDjhxw44ccOOHHDjhxw44ccOOFzeZTx+Sy6/5jC7/AFky8tuXSM+4PuuZxxe3bZkqBkqBkqBkqBkqBkqBkqBkqA2mmmlXfP8Ack3t/pDfLbb6pP8Anyv2so/Pm+tmXlty6Rn3B92ttt1PCuwSNgkbBI2CRsEjYJGwSNgkUpSlPCn3JN7f6Q3y22+qTfnyukidrWBhdnW78Qd2wI28WyBhaHWgUzJca5uLfHW2Wcy3FqUd0qaa9y2Edxk9o9yhtWlL0KFTYvfUzY6xtBcUaUfZaYV+xb77C7L772txbnRCSuQJnRrUr1jeSFP5831sy8tuXSM+4P0OTe3+kN8ttvqk358rpN2/kYq6oqpo7cslJTCnjjMVG2JtaSQ0PDVE0knjb+W4ubk1ojVKZDDmmS6vIx2TX6T1WhtfWeNyxmVPJBzCpYdLFD7ArmSsvmJsT/YtaUrStKu0OmETcVR0BiEOQQ5AYSUFP5831sy8tuXSM+4P0OTe3+kN8ttvqk358rrdA4la91fet1ll9PC8fLbWtK1Fbba+HiLbaW0pS39kqfz5vrZl5bcukZ9wfocm9v8ASG+W231VDNhSQbX9q3GWnqjzbfWTLy25dIz7g/Q5N7f6Q3y22+qrSlaVpWhFlv8Aa3aG0NobQ2htDaG0NobQ2htDaG0NobQ2htDaG0NobQ2htDaG0NobQ2htDaG0NobQ2htDaG0NobQ2htDaG0NobQ2htDaG0NobQ2htDaG0NobQ2htDaG0NobQ2htDaG0NobQ2htDaG0NobQ2htDaG0NobQ2hUiy+nhfSlKUpSnrJl5bcukZ9wfocm9v9Ib5bbf4NmXlty6Rn3B+hyb2/0hvltt9U9uSpC5w5OQ+ychhXn771NzEZN2+2L6uSS1T+8Jl5bcukZ9wdfiD+IGVESpzisV+qepw+qepw+qepw+qepw+qepw+qepw+qepw+qepw+qepw+qepw+qepw+qepw+qepw+qepw+qepw+qepw+qepw+qepw+qepw+qepw+qepw+qepw+qepw+qepw+qepw+qepw+qepwt1U1OtupdT4bNd3+WO9YhKekm9v8ASG+W231T6xWvfFX0PhqdbuXL3iINL4pUnrWdrLZkNiIr93zLy25dIz7g66p/7O1G9b8M3+7oT1k3t/pDfLbb6q++hdPGtpK++njTGXjGXjGXjGXjGXjGXjGXjGXjGXjGXjGXjGXjGXjGXjGXjGXjGXjGXjGXjGXjGXjGXjGXjGXjGXjGXjGXjGXjGXjGXjGXjGXjGXjGXjGXjGXjGXjGXjGXjGXjGXjGXjGXjGXjGXjGXjGXjGXjGXjGXjGXjGXjGXjGXjGXjGXjGXjGXjGXjGXjGXjGXjGXjGXjGXjGXjGXjGXjGXjGXjGXjGXjGXjGXjGXjGXjGXjGXjGXjGXjGXjGXjGXipK62njWy+hlPGnrJl5bcukZ9wddU/8AZ2o3T4SYXGJBGJspeNY9NoI26TTy5tCVrZmtNGkxzdpy3rHVKgVqoSWbHGNc2y6D8W9KLEP09TKCI8jsususuutu+/EtMny5YnNe57CHXT6RqWRxHwzf7uhPWTe3+kN8ttvqiKUuXEUr+1TrbbFx9LfWTLy25dIz7g66p/7O1G6fD5qA2RqUMiBx+K/URK9mRxqjoRS2hbahb3L6jv8AevRrjXR+Nc0SBDbbqS43KlCpWRqItLvSHGXXXGXXX3/fjLwhYXSjgqdXVxfHFY5OQ+Gb/d0J6yb2/wBIb5bbfVJvz5XV5lDLHryCFqBejcUZCxGETihX2qbknz2fPSwWmF31vpb0PPJSkHHnEyBpUcHQr+lYvQtliW5YcsSpSFRxyZQQrTp1BAKckJ6tcjJ/pMkbGSYoJM/pMc20pxIa7wicUK+1Tck+ez56WfqKn8+b62ZeW3LpGfcHXVco0nVDUW0z1nwyEmG61w+63pJvb/SG+W231Sb8+V0lLsewMapcR/kkdeRFGY5gY0yNQEyWQp2LVN9RoEK1x1XSL6tyd2j7Bra7Jj1Ekj58GdjGB7khL+1WvktLdCoihjyxamXvUgmh7Ui1LWKnZofDLJfPFLEoZbCtR1Ch+bXmjFLZerMbWJxf1Ls7zVvjSUiTyhKQuIOTNCpOs1wOva6SNgbNK19y+WPxOlExe6EtLi86iailJy5q+W6Wmvd7+rkGn7Q+ONFFZDEnWHGHUdJt2Qiltresc41L1bW4PSNfZp1Flhkjf3/TlUstEfc5sS5Rg65K7TG6AopmbIJZMkd72wtzzNH9zaJA8x52eXyGOZqcLTJSyJ4C6BMlkKdi1TfUaBCtcdV0i+v6gp/Pm+tmXlty6Rn3B11o+G1FqO6GP7J+DjU4fg41OH4ONTh+DjU4fg41OH4ONTh+DjU4fg41OH4ONTh+DjU4fg41OH4ONTh+DjU4fg41OH4ONTh+DjU4fg41OH4ONTh+DjU4fg41OH4ONTh+DjU4fg41OH4ONTh+DjU4fg41OH4ONTh+DfU0aLaFNmk9qxef0k3t/pDfLbb6pN+fK6L0CNxRno1jNF2WPmHnoulY6yWNz220VxRjPWtDhWUQNC4ts1MbGKAR1lPb1haHT2KNi5MsTIog0N5keqlaGdIxkLS05kGiPBL2O69iaOZJe7roLEuCXsVx8eZlLxa8nSSFU2I4nbIhAEza0qS3hRDGBU6uLneews96VlS3r9MoU5muN6x0gEYd3JU5n2QaKW2W2UbYRGme5XeW1QaMsS5OtR9rR61jLZQ/RFnkNq6qp8jrJI261vdmiEx1lVLVZDTA4yyLUyxH2rHSmCkft4No54x/oRDIylZUrGQsZkahdydrdpwvuXxnfrHWSxue22iuKMZ61ocK/qCn8+b62ZeW3LpGfcH6HJvb/SG+W231RN1LFyet37VPupcuPrT1ky8tuXSM+4P0OTe3+kN8ttvqr7LTKeFaHrraeFMleMleMleMleMleMleMleMleMleMleMleMleMleMleMleMleMleMleMleMleMleMleMleMleMleMleMleMleMleMleMleMleMleMleMleMleMleMleMleMleMleMleMleMleMleMleMleMleMleMleMleMleMleMleMleMleMleMleMleMleMleMleMleMleMleMleMleMleMleMleMleMleMleMleMleMleMleMleMleMleMleMleMleLjl19PCtllC6eFPWTLy25dIz7g66o6nvRL2sZWTvWZDvWZDvWZDvWZDvWZDvWZDvWZDvWZDvWZDvWZDvWZDvWZDvWZDvWZDvWZDvWZDvWZDvWZDvWZDvWZDvWZDvWZDvWZDvWZDvWZDvWZDvWZCk2mVK0rTSLU10el9zE99JN7f6Q3y22/wAGzLy25dIz7g6zXzlLfW6Pf7GjvWTe3+kN8ttvqDS6+PzU/bJZVa/+q71Uy8tuXSM+4Os185S3ppfA4k5w0x6d0kQ0ul8YXuTOG5rZ1yAteYfGjrbVfy2tdW254OVSRrRlqHu1B22mKbz71aeAvR5lxV1aVpWtK/eY4e5VPKvcZNHFsWdjW5WNHv8AY0d6yb2/0hvltt/g2ZeW3LpGfcHWa+cpb0gmrVkSYb2ZU4a7JLmpSgbQQtNISrU1p0lUmkqPBykx7klXJx3IeYqdz1JkqOU5VFdZcvOobVT99nXpmxZRUctWq3FWerVjR7/Y0d6yb2/0hvltt/g2ZeW3LpGfcHWcWXlzOWUv9Zo5ZffqKwVt6Sb2/wBIb5bbf4NmXlty6Rn3B11B0hTy1be6N30AmQ+gEyH0AmQ+gEyH0AmQ+gEyH0AmQ+gEyH0AmQ+gEyH0AmQ+gEyH0AmQ+gEyH0AmQ+gEyH0AmQ+gEyH0AmQ+gEyH0AmQ+gEyH0AmQ+gEyH0AmQ+gEyH0AmQ+gcv/APOnumySEZCkzpJvb/SG+W231Bpta1+W39slG1pdSlfVTLy25dIz7g/Q5N7f6Q3y22/wbMvLbl0jPuD9Dk3t/pDfLbb/AAbMvLbl0jPuDrqrqo9kPa1iY+95oO95oO95oO95oO95oO95oO95oO95oO95oO95oO95oO95oO95oO95oO95oO95oO95oO95oO95oO95oO95oO95oO95oO95oO95oO95oO95oKTia0rStNHdUHR8cKsD50k3t/pDfLbb6petUo9rY5ty6Qh/cX7uTN7m42Qy6rk3TuLurmU2pIrOy1LQmPepzKLoszHqC2LURxcX9Ihvc5LO47VlXu37FsfH2yOGvt58pbEt1CzVUlaEt6coFzWPHUJvLXyZqb1J6cxK6oFqg1OnuljNtIzCkK5I5JSlST1ky8tuXSM+4Os386S/1ujP+yo51k3t/pDfLbb6peiUrNrY4Ry6R4maxdRIrCnmKyVzUagqbVsbdb3PTE0iLQuUxhwQvVNR406SRqTkt8chLw0yN9dDkbbPD5Jzz7+xW6GKWVOgdUihncEro8qbWdjObHVuutMY3OsSd0FC7XhjWPtqc6LPCBpYCG5yj56J3KWJI631bW2ll3rJl5bcukZ9wdZv50l/TTFIx0YmxQvc1elcgjcmLaA7IU6RBGTilUYtsMUmnrInemaijTjIE+Wp/ntaIq1GnJSzSIucelRmegYYY51UFGOMoja6KO5zarGjP+yo51k3t/pDfLbb/Bsy8tuXSM+4Os386S/pC5bGWhpRo3hROIOQzlpUAq/lmN7ejUuL6rcyjSzjpm6KbVhRx0tcDqEmUKl56W8i9IVIFhJjYZb99mcEzWtorPXLlbkrULFg0Z/2VHOsm9v9Ib5bbf4NmXlty6Rn3B1ndl5c2l1L/WaMW3V1HYL6dJN7f6Q3y22+qkD2paLmUlKjl26vJbViuexBIgVLq2zlkOf+KT2SmNGoTl9t8vihd5FhjY7tTySYe2/uyZeW3LpGfcHXUfR9NLVt7s3fh6mg/D1NB+HqaD8PU0H4epoPw9TQfh6mg/D1NB+HqaD8PU0H4epoPw9TQfh6mg/D1NB+HqaD8PU0H4epoPw9TQfh6mg/D1NB+HqaD8PU0H4epoPw9TQfh6mg/D1NB+HqaCnw9TMadaZIoHaoVGdJN7f6Q3y22+qkke59RGPncYnZba12sqeFSS8t6uUvEZdHzlzjD4u8vLje5uDlEj19kstq3th6R4f1t/7smXlty6Rn3B+hyb2/0hvltt9VWtKUrWtp9l9PGzdG6N0bo3RujdG6N0bo3RujdG6N0bo3RujdG6N0bo3RujdG6N0bo3RujdG6N0bo3RujdG6N0bo3RujdG6N0bo3RujdG6N0bo3RujdG6N0bo3RujdG6N0bo3RujdG6N0bo3RujdG6N0bo3RujdG6N0bo3RU+y2njdStK0pWnrJl5bcukZ9wfocm9v9Ib5bbfVWl0PVEFXftW4uhCo8q31ky8tuXSM+4OqpUZQy6yzJUDJUDJUDJUDJUDJUDJUDJUDJUDJUDJUDJUDJUDJUDJUDJUDJUDJUDJUDJUDJUDJUDJUDJUDJUDJUDJUDJUBAquMMoWZ0k3t/pDfLbb6pN+fK/ayn8+b62ZeW3LpGfcHVR+YP8AWt/5wnrJvb/SG+W231Sb8+V01gdXBohhxyGpcgrFi5ENHnRwdoYSauDyrksEelLUzti98a71kbjLFqAU/ukbRkTKxrlUU1OdVDES0xJVCkqCfyZVcxzpERdNnZhcyEkqZtWaq1UduWfsQzcqXftsupPFXubTOIVIZHJuRd1oU/nzfWzLy25dIz7g6qPzB/rW/wDOE9ZN7f6Q3y22+qTfnyuknjDdLGc1qXfQBg+anjG423xRoIbEIeo1R3dYmvotir6nend1jlNO1LT2yfHUkBPKic3Y1D3FVyxPFjW1VpouXNkxJW2wd0dnItXKWSFPbWc0kHfsV/ikek2Bc70pSlKUoFP5831sy8tuXSM+4Oqj8wf61v8AzhPWTe3+kN8ttvqk/wCfK/ayj8+b62ZeW3LpGfcHVT+YP9a3/myusm9v9Ib5bbfVX23fMWZYWvust8LuRHIjkRyI5EciORHIjkRyI5EciORHIjkRyI5EciORHIjkRyI5EciORHIjkRyI5EciORHIjkRyI5EciORHIjkRyI5EciORHIjkRyI5EciORHIjkRyI5EciORHIjkRyI5EciORHIjkRyI5EciORHIjkRyI5EciORHIjkRyI5EciORHIjkRyI5EUX3221pZZbf433mesmXlty6Rn3B1VN9Dr632cUoHFKBxSgcUoHFKBxSgcUoHFKBxSgcUoHFKBxSgcUoHFKBxSgcUoHFKBxSgcUoHFKBxSgcUoHFKBxSgcUoHFKBxSgcUoCVHan8brukm9v9Ib5bbf4NmXlty6Rn3B+hyb2/0hvltt9UoWpUpqEk6qoiiq1KFq9I32EXqv3hMvLbl0jPuD9Dk3t/pDfLbb6qYGXJV0HW1kSt2eDVxzRJWR+RmuKNhilbqs5VTf3fMvLbl0jPuDqqVGUMussyVAyVAyVAyVAyVAyVAyVAyVAyVAyVAyVAyVAyVAyVAyVAyVAyVAyVAyVAyVAyVAyVAyVAyVAyVAyVAyVAyVAQKrjDKFmdJN7f6Q3y22/wAGzLy25dIz7g6qPzB/rW/84T1k3t/pDfLbb6qttxxpRFtrchpT++AhGAhGAhGAhGAhGAhGAhGAhGAhGAhGAhGAhGAhGAhGAhGAhGAhGAhGAhGAhGAhGAhGAhGAhGAhGAhGAhGAhGAhGAhGAhGAhGAhGAhGAhGAhGAhGAhGAhGAhGAhGAhGAhGAhGAhGAhGAhGAhGAhGAhGAhGAhGAhGAhGAhGAhGAhGAhGAhGAhGAhGAhGAhGAhGAhGAhGAhGAhGAhGAhGAhGAhGAhGAhGAhGAhGAhGAhGAhGAhGAhGAhGAhFW9FWlfClt5RxxF3rJl5bcukZ9wdVH5g/1rf8AnCesm9v9Ib5bbfVJvz5X7WU/nzfWzLy25dIz7g6qPzB/rW/84T1k3t/pDfLbb6pN+fK6HHFJyjDjr35RKXBMU1Qx6VvUdRrFYbNUW5LfJi3i7UJNSc0jFrJqe2uFJecsQ6gxpxckTeShnsccnBMhJdZegthLjI2lfIVzG5taZf3Izc0mZQZPomUwuD9fdIGYl8TsNSJvGFiC5eRR4bLHrhAon0cJJIMLQTWOLUTcqIkMvbI+S9WVYJy2PKOOXmzSaJ2NlkZ6Jpm7A8uN7cU26hxl2Vok6d7ljOxqkyE8+dxghIzqSb9QokWzpne+mqMXuMUp6P8AJaHQ9Gvjh0/saZbKGlcbOYunbmdwKu1DiSZoTOhyfUGM3lqamd0MBK9+Q3lz2OXOaNqJRzZqQMDOqXyfUxuLir65sqLUCOqjlacqATCyaR5E5fp6n8+b62ZeW3LpGfcHVT+YP9a3/myusm9v9Ib5bbfVJvz5XSYsit6jqxGkJjymVOKk51JJKTlFEkgqMPFkN1Rb6Etj0zzGOugkSV3Zo7rckUFkyeU0g6I+PscqbX1ptRuVjvIzIKkWsDXcuOm7g5JYROkUdq5l26bnJX1G00Jh06TshjvRDAHBklbRYg1DvfbmGLyFHSML4U6xleyqo3KjbVUlBTTKH9+mzisLTyujbpy4VdY1M3tr1GPq6Mshnjqhoqj8RdfniqBwJ7qQSAyUm0RStre2iTmFxKRKj07upa2ZcnnstdzYhHnpNfp61ORlZMwTSVupBenr+01jTuYTCnOpUdVEyKIOD8/zKoVQKWuLU0rDmhmXIZ5M3QxrZX6KnQJYL217l1urJJS5pcDp/HHazTRK7tMWbmN0/TlP5831sws8I25V6Rn/AJkVOqpvodfW+zilA4pQOKUDilA4pQOKUDilA4pQOKUDilA4pQOKUDilA4pQOKUDilA4pQOKUDilA4pQOKUDilA4pQOKUDilA4pQOKUDilASo7U/jdd0k397o9b0hvltt9Um/PlfYVpEq9IpRqrLLS7LbLP61DchVnITlHondiZ39PYndWxqa2NHYibP1BT+fN9bLE5iqMv5RaZRYqTJ1BbR/wC2f5Skr+hO9aKZBFklFKgtImUHmRNOYljLCUb6mt15RxJ9vIIq0GehGehGehGehGehGehGehGehGehGehGehGehGehGehGehGehGehGehGehGehGehGehGehGehGehGehGehGehGehGehGehGehGehGehGehGehGehGehGehGehGehGehGehGehGehGehGehGehGehGehGehGehGehGehGehGehGehGehGehGehGehGehGehGehGehGehGehGehGehGehGehGehGehGehGehGehGehGehGehGehGehGehGehFzghpStaUuuNNNPu9ZWlK0rSsSrtNPG3vHi3vDK60/Qmg6jm7PLvbLP/W0cbbSlLaUpT+DVdaM0hTrQtSEL0ilIoj65RSpzQ4foD6sVW0IaG5CiTNqNMjSo7uZkalZT1F1PlurT9tW0+atKescECRyQqUSljcVV1xzU5vLNRzsIOJan2ik3AX+udHmiI61AhZWajXaeoUva9RZeS0tqFEma0KZEm9RdbS4Y4xhjDGGMMYYwxhjDGGMMYYwxhjDGGMMYYwxhjDGGMMYYwxhjDGGMMYYwxhjDGGMMYYwxhjDGGMMYYwxhjDGGMMYYwxhjDGGMMYYwxhjDGGMMYYwxhjDGGMMYYwxhjDGGMMYYwxhjDGGMMYYwxhjDGGMMYYwxhjDGGOLbaW+teWm1yLJNLbHu85VVtcnVrb3UiwpZZZKWitbbaS9mKr8q8qQsB9vzFc2zDm2Yc2zDm2Yc2zDm2Yc2zDm2Yc2zDm2Yc2zDm2Yc2zDm2Yc2zDm2Yc2zDm2Yc2zDm2Yc2zDm2Yc2zDm2YXv8fT2eJndzOd40QX9yOtt1prY1oGdPcWlcHm8tTxza1NlrbYfeZ/CLo2t7smx1lO5GT+1EMkZFRlE/Q9vazr61M4RmHCMw4RmHCMw4RmHCMw4RmHCMw4RmHCMw4RmHCMw4RmHCMw4RmHCMw4RmHCMw4RmHCMw4RmHCMw4RmHCMwsa2sivzlhZJGRAZcnF9shd6VpVA3IGdPsI/wCFFSBCvJqSr7QZCbfFN2xT/wAdsjtkdsjtkdsjtkdsjtkdsjtkdsjtkdsjtkdsjtkdsjtkdsjtkdsjtkdsjtkdsU/83RFiu/urSIkSEqhKT1lbqWjIGSMkZIyRkjJGSMkZIyRkjJGSMkZIyRkjJGSMkZIyRkjJGSMkZIyRkjJGSMkZIyRkjJGSMkZIyRkjJGSMkZIyRkjJGSMkZIyRkjJGSMkZIyRkjJGSMkZIyRkjJGSMkZIyRkjJGSMkZIyRkjJGSMkZIyRkjJGSMkZIyBS6l37VwiRhEjCJGESMIkVb09a+NeOSjjko45KOOSjjko45KOOSjjko45KOOSjjko45KOOSjjko45KOOSjjko45KOOSjjko45KOOSjjko45KOOSjjko45KOOSjjko45KOOSjjko45KOOSjjko45KOOSjjko45KOOSjjko45KOOSjjko45KOOSjjko45KOOSjjko45KOOSjjko45KOOSjjko45KOOSjjko45KOOSjjko45KOOSjjko45KOOSjjko45KOOSjjko45KOOSjjko45KOOSjjko45KOOSjjko45KOOSjjko45KOOSjjko45KOOSjjkoo3pqf8YRIwiRhEjCJGET/9BkvkqOHR5c8KnHXfUVYqMNTfW3U8fW3U8fW3U8fW3U8fW3U8fW3U8fW3U8fW3U8fW3U8afa7vRzuibZP/FHxGX+MHbPD7VK1pWlafxR8R3khq/othcVakEaMkNkSeVzo5IWVSyu6NOapUp4tJFaxMjIcG5e1KjEi/wDiv4jvJDV/RGV69A3NFjIVSIHESw1mdHmMyKbTJhWts0aJHfqCTfqU7Er1TEjs/iv4jvJDV/GmqkQUTWIqkCVxa3JoVGJHD7Onun7vMXhF/wDHQo2lKeF37EMMp4fLb1KNpSnhd+4zDKeHy2//AEP/AP/EAF4QAAEDAgIDCAsLCAgEAwgDAAIBAwQAEQUSE5PSBhAUITGRodEiQEFRVWOUlbPC0xUwMkJSYWKSotThByNQVGBwcbIgM1OBgqOxtCRkcqQ0VoMWJTZEgJC1waClw//aAAgBAQAJPwD/AO+YthHisnvyqi18IeJV/YlsTezNMsCvIT77gstIvzZjS9Q2camHZXpU8BfVS8WB3Fse8g1uNwPyBjZrcbgfkDGzW43A/IGNmtxuB+QMbNbjcD8gY2a3G4H5Axs1uNwPyBjZrcbgfkDGzW43A/IGNmtxuB+QMbNbjcD8gY2a3G4H5Axs0ykNiFZ6dBa7CK7GH+tVG+QDAeyRR71vfEaCbJY07j5ih6JtSURyivFmW1bqZCf9INB0CNbqpP8AiBov5hpWjmxmOENSABA0reZBJCFOK6X38Fkx38M4XnkG4KgfBXkZWyf0GSebw2E9KNsFsRC0KllS9bnX8mDSBYWG6+IE6q5OPOIl/aVhHublmuxtBp9P8ARLNmyB8reaJ1rDMPkS3GxWxGLDauKKX79qw1+CEWasVW3TEyVUATvxf9X6T+Uv9BURES6qvIiVOjyRBbErLguIK95cqr7130/pYjHhtKthV5xAzL3kvyrWKxZej+GLTiEQp848qfsF4cwX/wDIse/eA5/oC98c0Yyo0Roj7wXIiWtz0CBuawGNJnvk00nD5TUH5Txcd3K/JzgUbB8WYYfitRmRB8IshcoPA6C3zU9pBixpTImvdC4kNARR8PjE6rY8RGvIIJ85KtqgQPcuM8QpENtkG3FHj0QG5YyKmOBq/AxOU+0a/wBTnkgZCt/k0xAwzCsOJE4TLECIs18mZXEPjO3IKVGiRt10SG+WGyQBFB59gNJozBOJc6caKNPMBNwZzSukDWjTgxB6qgtHHDBIeBTQjNAygHpXQIgFS+gFNMOPxcUU2xfbR1u+RhOMCpvD4+Js4kjQ6GKDbNlfBv4A1h0JlqCD6zJygznlG2alZlt26WAKab90cLwKcDrzQ5AdbeiuKBW7hcVZH8XmY66GHRPlEjDV3D+gFNRXp8gmAw7DkY0SMo7yHI2axnc5jbDmRwsGii2ckBJctjARFU+vWFu4bMfYEpENz4TTnIQ9X6Q+Uu+aAIIpERLZERO6tbmCxDBdMgq8UzghzdEuYhZS11DirDghyW4j64yxHFBBuObdwF9A4s+belG61DxFtuOBcjYqF7JUrEXQg4IEs4iZdAgIvK3cvhrWD4lGYxYf+ClvtiLbhZc9uIlVKKXieJy8WmNssN2JwGG3LZzzKiC2NYJib8VmesF2a02BgDwrZbghZ0D6WX+h30/pRoknFd0uLuxMNKcOlYgRWSIexBeJTXLQwG8e3NQ28Ti4nBZ4OjzNlI2XwHiXiShyLLiMv5e9pAQrdNbqX8Ew9+C+48826DaZwXsbqaKlYxJ3Q4LhkeO8M1EAnEddJBVrOmUTrA8WR+dIVrDoatIL8oUFDV0UVeJtL8q1h0+LisBEZfYdANJF0oqovlx2UO8qVK3RMvOYZMeHhotK3JJGs+fMBXsHxeKmJuMYviMV11GWcquKDZKiuGpKKCNNPx3orrrEmO+iC6y82nGJWVa3c4m1PfF9RbcRpyPmbdIBRRIfo1hkiVi85Xm0gRBTjNgrGdzWwhWFSmprMxIsoH2wvFPMPEaZvj37BUulblMZdlyWjcWKINorIAahdw1LIiryol6m4lHbnuTxSKKCIGbIWIZCX+JbsbUEvFMSxOdNZjNgoIRIwa8pOKKIiJWHy4Ri4TbkeS3kcAw5e+ip3lT9J+HMF/8AyLH9D8okvAIcJICwmgkMsiSusIR20orXDcXZd3QyMMwucwymlltCl23MnFe/JxVuUxmViSxUlSYLYNo5FbIlQdMpEiIRWugpTMkfdSE9JivOiIjmYLI4ySXujgVKxaJHk4liUdkQyIxMSMCXN3sr6P5NYLig4K9LSKGMk2CRlNTUM1s2bR3S2a1Q5ocCxo8Kej2BXtM2mZSRM1slqYfI8OYjvPyLDof+JHOAIt73tx7/AIDn+gL3wsj7UGLIZJeNLg4aVh2Pw5Dpq7JwyKrRMOOrxrkcKxCBLWGTpGJRFEMNwlnIEBhpj+oEz+EqJS533oUqQ8XcRXDBKbJyU7GB1pseMjWO6L+RPnLJUac3JiyXnWdC1nR5HOPJ9E6j8CfxjB8ZR1n+wOS+Fx/w3qVjmCS4hojRxPgfSQ0RtxePlAkrDd077eDaY/dObIZ4MWdtWkuCNiVyzVdqDurwtzJ3BRmYaE7zEJClNqEuVuenTpiL/bSGb2/wjYa8I+oxXhgf923XdjYn/unq8AF/tZNFpZe57G7vxyFDTQtNtui6Iry5F+ElbkPdsAcbjY9hAu5FjIvGj97KujuiZSrddjEHHLNm1hDoGatOKSZgR4QG2VOQs1Z1xJ+IqvGaWMxQyRsy+cgsv6Q+Uu+7o3JkN5kD7iEYqiX+atwMxmVhxMtnMV3QxmAbRAJxl1orkqpyDUTRI6ed0yJTccP5RmV1XeTA3mMVli+iSXXxMco2tYAVKew8HsU3OhAygbigMi91XjC+Sno6e4bjZSbkXZ5GdGuj4qmQvdBya/wxkzPg8iI4ecRVclxcHuKiU1hMd9MRF9MWjm6xK0KHdQNoRyGSpxKq/wBDvp/SbxOTuRbmOzYy4a0Lj7TrnGgOd0QFb2VKaxeJhOKso3i8rFGUHivx6Ez7IitdLUGVphoW2x7wglkSkiOQocJ9l1l25GRuciiKiqUEWM5JAEDMmRtFQ0K65EXvVJijieDA4AtSM2heB0Mhiqjxp81S4KYtjkZqO220ppGYbatZMypmVVp+MgYbhEqI8ikVyN5nRoo2HkvQYXOmYbCOJJjSCcSO62rhOIQGKXQhzd6o0Bh+W6ZmEMSRkbpYRufGVu6VTMAYZaF0EmCT7jwo6ZGqiKiA3TNTUSYuFsutPMTyIQko6uZSUm+MSQlvQYXBnzZLUgAjC5oB0JIQgZFci+cqZwaSAQzZkYa69I4KDyuqqPigp2a5bJYqkwiTBZeJOvZCPsxlJYMiZeeo2C4kjEqU6/FkZ0AkeNSAm3kHMBJUoHj4S4400Bm4Edo/gsibnZEg/pPw5gv/AORY/oMQJMXFQgpFAh0jgLHZ0Z5kMbJeijMtYPjDMx4DuF2m0VMraCipesPwjEuGxW2n4mJE62jZtJlFxs2r9zlGpOHwsbw2Sb7b7QmzGRX7i6I8RlZRWnI6QdzrUluUhkQm6j7SBcLIvGq3Vaw/c7JhtSsy4m8jxSyYz5sitJYM/wA96ksrg8yK4pREVVc4Y6zwYzta1sirx3vepjEufJkCTr7SkqE202LLQ3JB5BHf8Bz/AEBe+SHIcuLcWJTYoXYlyiQrbMNbrIxJ9KMQ+stbrIwp9GMReslSHJk2UiI9JcFB7EeQRFL5R3tzWFHOz5uGFEaV/N30cUc1YPBjynlPTSWmAB5zOuYsxil1uvGtYBhuIqCWDhcZt+2sRagx4cYL5GWGxabS/eEURKwaBNVkbAcmO26Qp9FTRbUw28y6Cg404KEBCvEoki8SpWB4e1CfLM9GCO2LLhd8gRLKvFWB4fwEizlESO3oM173ULZb1Cjx4woSDHZbEGkzLdbCNk41WsDw+MxLDJJaajNtg8NlTKYiiISWXu1hcSEy4akbUdkGgIlS11QERFWsCw6G44GRwo8ZtpSD5JKCJdK3H4IMlFuj6QWEcv382W/6R+V7/wAl04/2J8N4Mq+cWPfu7gk5E+dVZJET9jrX7qUz9pKZ+0NM/aGmftDTP2hpn7Q0z9oaZ+0NM/aGmftDTP2hpn7Q0z9oaBBTvqqV/ev7E5tFJbUCUVymneIVTkUV40rc+7ixAKCkyA7HDS/SNuQ41kLvoiqlbhMc1uHfeq3CY5rcO+9VuExzW4d96rcJjmtw771W4THNbh33qtwmOa3DvvVbhMc1uHfeq3CY5rcO+9VuExzW4d96rcJjmtw771W4THNbh33qtwmOa3DvvVYX7l4YDjbr7TzoOyZORcyNkjJEAN3RM3ZLmTi/d7yUtLS0tLS0tLS0tLS0tLS0tLS0tLS0tLS0tLS0tLS0tLS0tLS0tLS0tLS0tLS0tLS0tLS0tLS0tLS0tLS0tLS0tLS0tLS0tLS0tLS0tLS0tLS0tLS0tLS0tLS0tLS0tLS0tLS0tLS0tLS0tLS0tLS0tLS0tLS0tLS0tLS0tLS0tLS0tLS0tLS0tLS0tLS0tLS0tLS0tLS0tLS0tLS0tLS0tLS0tLS0tLS0tLS0tJYelf8A6cBoaGhoaGhoaGhoaGhoaGhoaGhoaGhoaGhoaGhoaGhoaGhoaGhoaGhoaGhoaGhoaGhoaGhoaGhoaGhoaGhoaGhoaGhof6Q0NDQ0NDQ0NDQ0NDQ0NDQ0NDQ0NDQ0NDQ0NDQ0NDQ0NDQ0NDQ0NDQ0NDQ0NDQ0NDQ0NDQ0NDQ0NDQ0NDQ0NDQ0NDQ0NDQ0NDQ0NDQ0NDQ0NDQ0NDQ0NDQ0NDQ0NDQ0NDQ0ND7xy/sTy/8A8D2Ms/FZLediEB5EQP7R0u4NbhGyw22kDLhz5ATf18xJUIMMxtsFMWhK7UgA5VbzchJ3Q/ouk1DhNK68Qipqg/wSocpiPDm8GHhOVDcXIh5rCpW/ptGcV/DUdetD4R+d0hDX9a5GaNzit2RCirxe/NMuSMPhG+yDyKrakPykFRW1Q4DE/CIr6wRhsuWU0YJwbi4bl1vTRC3FYjlGzROD8ZqWbfg4ZISezIN3hjbp20SjbLkcCkAXJMNl40G6ChOAhLa9+L9yA6eOGPzGlaPjBWsNA8gL9FdFvYzJgSAnNSyiMtjoiMLIet+NW6CSeDpi81pIa5cmRtkyFKxh6AcmVIB5WrdmIgNSc+MY9DBXp7oCahkaRTJB5M6qVflOiboHjBp08OjyAeJEctccrg5LjfsqZHBYrOFOjuiw3ShZwxdshAiZ+IkrG24mEtYs2k9knRBTJEFS4lFfi0uiNmScU32xBXn3mr6WxOcQNhWOhikB91GzznwtjPy6M8yCYViDuGSJ2KMsv5LETao27pGuP6Q1iPBosMHgOWToNScQeEyJcq/RvkStFiOLvdnHxKSgIcRkP6xXLpYvoqVY4eIMvaJ55gzR9l6M4WVVbK1wJKx+RAZfw0nHQay2I9KqVj7cKGmHAkkDeEMz+ZVvxiVbtpE7EglDFyQ1B0SfLi0YrkS61ke3UycLiriMpRR5W3jHJZseQnDOt2oS2o+Q5cUHdOrSGtuzA28lu/lpgGJjLxRZzI/BR4EQsw/RJCvW6GSzhM5lLRrCrSPx1TOH8CSp3B5uP8GWA6llNtsx0xn6tTzxbdFunddew0ZNskeKFkQyQLVukfFp9tX40TTA0bzffBpByUDSYtGZV5mQAI3p2wWxiYdwxrdDJnx2cGN4G3MtkcR5sb1ugkwI72DA8423lsTivODesdkQAlR5RPI1lsagQWpqTF3KFx6LSstCbGiVBMguhnmXjvXgp2nVafjtOutOJyiYRSIVrHZE/gcaKUfSWTIp6W9stYmWJ4hLi/mXpeRG4QCSZ36xw8QZcAH3WCMX2XoxlZVbWyKBV+qzP5gp8nMVONDCVKYsZI7o/wDw4X5zKsfPFt0WKylbdxB4RJuNYMxIyNflQi43JdaakHhbEgHHAFy3YkDg5Mw/GGsHTDcYTMEplFFRVRWyGOVSshJ+42Gb2Hy56TQP4mlPifYNe4p1ujWMeS5xHGHdOJfJsArWJ4hA3Mx5bb8hhFs23Fa5BP6b2WjKLDYxqQbrigq5QkMkIHZO52dSuHtYc467JmAJI0hvJYG0Uk+jW5zFJ8Sfg7LkaVCQLsPNBbiMiGx2KvytxpTzWQo8HSt8LPOvcVokIST5wpXJMwIEtrTlxm+1GO+kWsZahS5OKNuRwcQvzqGCBYaYcGKk+WhPWuvB5d8j41ibeJvyZbT7rjYlkZba+cvjLTJsvy90gzNCaWIAdbdyV/z3+8drwG//ALlqvAjH+5drwQXpio1DGcUgiZPfq0U7hnH6ZKNhrdVCTG3s4x4xiZ8Fb9odaZ7AcegQ3mJjPxwEbEgZuQsliSvyqYrMExHLEjky5JK/cVrJcf8AFT2LuQcTmk6B4k2224WiTR3BG/iU1nmYZ/7wi/xYRc4/4gVaeVYcAnWgVL3bjmavvFzJZKj2w/DhdgugHwGM+VWqxdIs2BhzMd+BozV1XGQQLN99CqKrMGMEt10viI7LWwtJU33PBzDXoWkMCyi+LwFlP6lGb0GHhwQwkqJCLxg4ZkQZu4mev1WZ/MFeCIfoRrwU7X6q/wD7Q6/VIX/+1eBF9OFeBE9Odfqsz+YKhjOwfFoIED2QVMo7wiTggvxHW6wefjWC46hvQZkDImida+kZBkOxV+VhhxxkQdjQHXG1mEpcgorRCYmnzhTzj8mPMeijJc4zfbbtYyXo/cbBYmRnxyuMPAhgSfOi1uacTxIy5CN/z1hceBEBb6NkbXXvkvKS/OtYKjsxsEBJLThsuKHySUFTNW5VlYcZ4nwAH32zV0ky5zMDQjrBGH8IjNA0zFdzOZBb4hymSqSKnfvetzzrg/2RzH1D+eoTDENlrRBHAEFoW7WyoKcVq3PGw82+jwttSHgZzit/g5qwRicrSKjTtyB1u/yXAVCRK3Mg8+0WZo5TrkhBJO8Bqo1h3DYjcgZAtaVxqzgIooV2iFeQqicEgRdJoWdIbmXSGrhdk4pEtyJawPgUuQwTLrnCH3czZEh2s6ZJyjWB8Nlx2BZac4Q+1lbElNEs0YJylWB8Neis6Jo+EPs5QvmtZowrAOGSWIoRWnOEyGrMgREg2aMe6Vbj/wDvpntawdiThUWOywzFeu4IAyOQLEVyuKJxFe9bmzcsVxZclPm3zKdMgyy0CA22AoIAIpZBFE4kRKyadpnRQwLkKQ72Ida00ukmEsKCvigW7pJ/EqjNSI7wKDrTgoYGK9xUWtzbg8d1ZCW+LX89YaxBhtKqo0yOVLryqvfVe+tYBeY8t3yZecYR1e+YtqlblGibw6NwaKDb77Ig1mU7WaMbrdb3WsG4cUMDFhdO+zkQ1uv9SYUGjZjsg00F1XKAJlRLrdVslR+EQ5jStSGs5BmBe5cFRUrBeCwsUEgmNcIfc0iEGReNwyVOJawXgXDwAJX/ABD7udG75f60ztbNWB8BffY0DrnCH3cwZkK1nTOsD4dIjsaFo+EPtWDMpWs0YVg3DihgYsLp32ciGt1/qTCsJCVhzGj0TSmYqGiSwqJgqElYAB4VId0zkOQ67JbRz5QaYjyF841uddKxX0RTH8n89RGosWOCAyy0KAACncRE/dFEYkNiWZAeATHNa17FemG2WgTsW2xQRH+CJ/8AQuqIiJdVWgk4oSLZUgt6UL95XVs2i/xKtzkSOPflzbH9VltxOmhwVPmu8te4v+dXuL/nV7i/51e4v+dXuL/nV7i/51e4v+dXuL/nV7i/51e4v+dXuL/nV7i/51e4v+dXuL/nV7i/51e4v+dXuL/nV7i/51e4v+dXuL/nV7i/51e4v+dXuL/nV7i/51Dgq/Nd5K3PRJCf8pNuf1X220+1TUrCjJUREnNaMFVe4jqZm1X5kKlRUVLoqduR3HeEnc8lvzLAkIG8f0RU0okFE5VVbJTaosFGFVy9xNHwzpah0izWpJi4JIojwfLdF+vTCZIsRp55/NyG6RIIWt3guq04Jj3xW6UiO8PkusIQElgJtk3uy+pTKxHZ0tYzTKkLnZpmVLkCqllEL0xp3Z80I7YIWWyKimZ8i8QAKrRjdb2S/GtuWnBJQWxIi3svz04OZUuiX41SjEsqqK2W9lTuU6BZFsVlRbL89LTg50S6hdLonftTREs/T5SReIdCGdb1H4K4YKRskYGraJ3yBVRabSQMufGioonZE05oGbu3teiRLJdfmSjExXkUVui0OhV16Q2LRkmZeDuk0qp9W9OCKkthRVtde8lMlnWAsvS3TLZHNHlp0CUFsaIqKo/x71KnHyUt7U4KmPwhReNKcHMd8o3S625bUYotlVBvZVt3qBWGZEMJKiXGoiQ5rLQq8GMSG2miTiyaRk3kIk/gFGJpe1xW9OCWVVQrLeypTgqeXNlvx279qMQHvktkpv8A8XFfkI7mTKgsKCLf+OejFQtfMi8VqcEhXkJFui082gIuVSzJZF5LUtOCpj8IUXjSobg+6qzEBVJFycEWy3/jS8aU4Ije2ZVREpU4+SlSjRcqqi2XkVKcFTQb5b8du/ajHMt7Jfj4qdAlBbGiKiqP8e9WEq61DklGbVZDYk842aAdkLkRO+q00QLhr7bRmq8RK4yL10/gh04Jj3xW6U4Joi2VRW/HSpy2qGsktK2KtIYgqCZWU1U1RLJy2p1DdgAJvAn0hUkRF7vElWBZsNmSjJEimIughoi89O5TlyBYb/6yFS/uSwrSI3wEI5E8RIgFwhFVLc1GIinKSrZEokVFS6KnJalTj5KMUQfhKq8SUaKhWst+Jb0Gc3oT8nSiSKKaFwG1H+NzodLp5zERREkuJPrZCKmNFwDETiL2V8+QBPNyJa+fk/SkVZ2IkKFoBLKDQryG+fHkHpXuJUvh7icYxRRQhh/Br4/8TvQIIilkFEsiIncSsSbeeD4TMYSkuJ/EGUNUrA8aNO/wIw6HMq1ufxryX8a3P415L+Nbn8a8l/GnXGpSDmKNIbNh63fQHERSH50unaLjjslRzDEjtG+8o/KUG0VUT514q3P415L+Nbn8a8l/Gtz+NeS/jWB40Cd/gRn0N5lrE22Xi+CzJQo7i/wB5BWhQhJLKKpdFSpfucV8xRLZ4TnzK18S/wAoLVFWDiIipaAiQgdFOU2D4s49Kd1O21ww4L7Z4QHCUcVVaZujqjktxEZKn91KyULDnZkDE1fssdJ7CCDJPX7GxjchvTa+45T8JKSkVFyFDunCNCg/E5b5a4Hk9z53CFhW0F7N5fgdjnqyMYrjjciYpoZh7ngWjDOgWXR5QEjt3FWsQw50CwkAfZwVgwZXs0uWYSIdKjeZLD2VcDukiUjqw0TJlSG5lR7L8fvZuOosNWWt0cgJD8gAURYJyTxGR8gZrUrawsIwwNDoraJXJnwctvkthxfMVRM+L+6uINsvimZ4AQkzC0vKPEq8Q1PwNNCy9p2sLiuCRMqFsslc5ZVQrKmfjvUQRlS8Rw9t6UPE+bbx5DDScuTKuW1Q+Cg7udhPHHhhkzf8Q4DhAIfHVtLJahgk242+3iaQrZOBEySZX8ndU7Zc3HSkTu5Nt9NIa8T0ghVuGWq7IvnWsQwlnGG5rLj4hGcXFEdFbvpIXPexcaGRJlr/AJ/0KVHF9gcJxQ1aPjA1Rxm2ceQkoGWNDuzw/gbZIuhbMwZP4I8gqRXVEp1yLivDIpYu7KDTXdE0IDkWyoUQrWS1hQaiwARuS2pv4cZFCeIg5Wx5BJLWNEoGUx8pU/gd0ThqyNOasLG+Nlv3R4r3p/A23HGo6RvdRknMzGiRCSNYxS+e90Hsr1Kek4km4VxGXSAgeMtMmXiLjQ7dNDE4WklOEjHRNKkPRlpUl9R8eakdQNwpEoInI8Cu5rfxSKlv8VNOq9iCyMRMG/6xUfuYCP0kCw0WCtI4cgXWoWZySInFcPLKfVeyLMPISXUqhNriITdIExUu8BDOyplNeMURO4lNxyxI5f8AwKPpd8o2jHQpEvx3zX+Bx5qiNyRPBGbNGCGikjVx4lpuEQlicQMRbj5RVXkgO5xfyfG+UhVGGM2WHYU8bEcFEcqumLxILduNWxstqxHBVbbwiUEhrCY5g2QENgR9c5ChCvJfsqiNhNdm4XpJdk0xo+3Y0I+VUWpkBgmkkk0OJtZ4DpKgplMrplc+RWFtpDDD8WyxiInmC0b7aIoZ/htLyheoUVIKbr0abbfNWoLF4rbt3kTi0eb4nIpLUiGcdzGsFISw4CZj3N9lCJrjLvfCSmcGgYQOHHwYZ7F4SSs9z4kIBR1RtZSp/hUfSynYoxWjaAWvkMIaquW98lFgrSOHIF1qFmckiJxXDyyn1XsizDyEl1Kvl45/OtRyfOdHXDHGB5CfW5xTX+B3BfmKjjHhzGDCkR6bbg5TFcJZBln7DSndFouD4Gxumm8CecuLTUR6KbYLcrZW1cVcvctTquRyHBwB4FshojllIC7qfPUJqMyMJ9UbbFBS6trxr3yXurTcb/2iCRAIkb/8WNsvCFf+NkUL3zcVRELF1n4m3HfFLvgl17BouUeum4iylkWljHEc6QtGWlGX1Hx5qweCD7G6CQDTosAhgIzUFEErXRESlFI3/tBhqzlISMOCpEaUtIgWVW72z/RrFoCQnMIRqV7hxT0Ikpdi4tjISMRvdE48tNYQ4XAGSKXhFwjGKEqILjSKoi702pXGgWQ7jjLyXRBU27Nj5Rc6ZJksSx3BwBokVCBuNIbby6zPUSBHmvR2nYIq22DporB6UmenPaobTc1yXg+eUiJpiSQiIYqfKoqi2tUSKbDGMNDIfkNgogwTZpYyJOIMypUGLMjBBw1IokImwLZtHZQH4PGnItPwBwtuHLBosSAnYoyAeyhn7IUQsiWBSqUw/CfnvGwMdo2o4AqIhCznUrtqV1RU4qV5A3CrouQvzoE7Y7d+0VE+tSD7l4ic2fKR9E4OMySouMae/FYQuI3riwKVuiwZuLobi1nN4RfVi1rD848V6itxXQ3JYqkNpgEARd0rOWyJ9Kkje6Y4pB0+iS0jl7PhXdupfL7tS2382Muq5lvdtzRNooFfup+k3AGYTaHJkKmZIjRchKndcL4g/wB60BXIs7rprmcdcXlNwl4yJajcOxBBubaFlaYReQnz48vzIlyWphTy5eChdqGPzaNF7P8A9RVphtlofgg2KCKfwRP6OZt1tc8eQ3xOsOJyGC9xaEElsuOx5KD8FHmDVs1T5ltdPfxFZLrjceKJcivPGjYKX0RVbrSk4ZlnfkHxuPuryma99f6LDbzRfCBwUIV/ii1iJ4co8fBDu9DPu20arcP4gqVEWBPtcGiLM2+icpMHxZ7d1OIk71AtwNHGnQVQcacTkNsk4xJKcEpQNqceTbKMtlOJSt3HB+OP96dtpdN4Eyre424uOmgbbbBAAARBERFLIiInIiUlqREut1pKZACdJCcIRRFMkFBRStyrZETeREvy76WvvIl+/wD0URE7yUiXSkvbeTl30tfeRLpyLvJa+8iJdbrvIip3l3k3kRU7y7yWvvOEowJBPgzxZDdyKAkX/RdVT56RFTvLSbxKgvNG2qpyohJalU0jR22BMrZlFscqX3kRL8u+lqFE30S6ci7ybyXTfSk3k5f0m2jsl90WIjKrbSvucQj8w90l7iItOq9IdJXZchUsTzxfCLZTuJxUeSQoIcqXZCGI0XItl5XTt2Cf3rTWQLqREq5jcMuMjMl4yJe6q+8cTjeI8IT52pLYmJfWQk/u9/S5niXCC76NxmyJS+sop/f7w2pAqoQkKqJgY8YmBJxiQ9xUpzSSkBTiS7IIy2h5VsnEjofHH+9KdViQ0aOxZI/CZeH4JJ83cJO6lM6GUy4TEtj+zeb4iRPmXlFe6Kp+4/jj4QHBmPnkuihOn/hFRFP4lTKuncW2GUWxPPOFkbbT/qJad0sl5xXpkjuuvHyr/BOQU7ie8oPDozStkyZZW5LKrdWiXuKi8YF3FqUmHS/jRZlmHEX6ObiNPpCqpWLwteHXWLwteHXWLwteHXWLwteHXWLwteHXWLwteHXWLwteHXWLwteHXWLwteHXWLwteHXWLwteHXWLwteHXUj3Rl27GJCs+6q/Sy8QJ85KiVlSbIbRsGQXMEZlONGhLuqq8Zl3V95cRmUwSPQ3/wCyfD4JfwXkJO6lN6Jzsm32eVW3m1yGH9xJSKjGMDwV/wCSkhoVNo1+chRR5v3HLYGmyMl7yCl1pLPygWW/39LJJXiT+5StXGzhUZZridxXnrtM8yIa+9tA4C8omKEnMtYRC1AdVYRC1AdVYRC1AdVYRC1AdVYRC1AdVYRC1AdVYRC1AdVYRC1AdVYRC1AdVYRC1AdVYRC1AdVYRC1AdVMg2CcggKCnMnvd0axSMMxtO4jzFmXecVCk/PRASWxb+1ikjwon8VG1FmB0BMF74kl0/catidhOMovzupk//dJZESyJXdxEI4r9BhgPWIv0HypiJxz/AOh9hz1hGhRRJFRUXuotLcmoTbKr87SZP/1+43xXpR3vDUr1f0H4ai+tveN9KXbEpdO4Kk3GZackPmid1GmRM7VDxzzLiPsKh455lxH2FQ8c8y4j7CoeOeZcR9hUPHPMuI+wqHjnmXEfYVDxzzLiPsKh455lxH2FQ8c8y4j7CoeOeZcR9hUPHPMuI+wqHjnmXEfYVDxzzLiPsKh455lxH2FQ8c8y4j7CoeOeZcR9hUPHPMuI+wqHjnmXEfYVDxzzLiPsKh455lxH2FQ8c8y4j7CoeOeZcR9hUPHPMuI+wqHjnmXEfYVDxzzLiPsKh455lxH2FQ8c8y4j7CoeOeZcR9hUPHPMuI+wqHjnmXEfYVDxzzLiPsKh455lxH2FQ8c8y4j7CoeOeZcR9hUPHPMuI+wqHjnmXEfYVDxzzLiPsKh455lxH2FQ8c8y4j7CoeOeZcR9hUPHPMuI+wqHjnmXEfYVDxzzLiPsKh455lxH2FQ8c8y4j7CoeOeZcR9hUPHPMuI+wqHjnmXEfYVDxzzLiPsKh455lxH2FQ8c8y4j7CoeOeZcR9hUPHPMuI+wqHjnmXEfYVDxzzLiPsKh455lxH2FQ8c8y4j7CoeOeZcR9hUPHPMuI+wqHjnmXEfYVDxzzLiPsKh455lxH2FQ8c8y4j7CoeOeZcR9hUPHPMuI+wqHjnmXEfYVDxzzLiPsKh455lxH2FQ8c8y4j7CoeOeZcR9hUPHPMuI+wqHjnmXEfYVDxzzLiPsKh455lxH2FQ8c8y4j7CoeOeZcR9hUPHPMuI+wqHjnmXEfYVDxzzLiPsKh455lxH2FQ8c8y4j7CoeOeZcR9hUPHPMuI+wqHjnmXEfYVDxzzLiPsKh455lxH2FQ8c8y4j7CoeOeZcR9hUPHPMuI+wqUunbTMcZ5pxh9B76tPIJ2+e3bfivSjveGpXq+/mifNTSr86ram2+mmw6aaUfnTjokX3/w1F9be8b6Uu2BFZmNMtz5T1uyXTjnAL/JAVQRT9mkQJmCtHiEZ63ZpoBUyD+DgooknbfivSjveGpXq++rS2H5Xfpbr/RVUXvpVk7x9fv3hqL629430pdseA4HoB/RDoNtilyM1QRT+KrRiQEKEJIt0VF5FRafbF13NowUkQiy8a5U7tqebaBLXMyQRS/EnGv9FbIlYhGU5SGrCI6N3cnGWTj7K3dtvSGjdYy6VsSRSDMl0zJ3L/ofwHP9AXbfivSjveGpXq++r2CdPvK8S/AX33w1F9be8b6Uu2PAcD0A/oaLwp9toiaYzo3pDROIEIuJL99a3PvNxwxYwcdKY04kLKwBIygpxmir3u/U4IsPFp4u4i4RKKcEi2MhunyysiUbeJSMCxH3OhERdg6285aO4X0bL0U/h7+ijYw6BwWzCyDFVTBRNVvbuLXuU3hOIyWFbiNifCGWxkogEpqtiW40xHefm43FhKD98qi9m7o8i8VBBnrBwMcUjnCA2k7J7Qo0WdS7q8tOQJq4q0Y5WIEthID6hmbzk7xON34iqHGyvf8AxCuVf+GzyeCAo8fY9nQMhGOZOaw/RiqZorSqAkV14yVUWoMV1ZMXGbSDEleZyCa2bW9kzUzg/AG5ehkRUBzSPCr6s5hLNYKitPYvjU7DWYWnXKw3kjXM3F+jfiFONadFx1ATSGI5BIu6qDdbJ81/0N4Dn+gLtvxXpR3vDUr1ffFsbnQnva9knEvvnhqL629430pdseA4HoB/Q7DbavOaR1RFEzna2Yrcq2SjeeluQRhC24oq000J5+wS17kvGt1pJCJi8NqPKYbIBauwt23h7G6ODWP4ziUvDG3mmSmPg4CtvNq2oEORO4tY7jo4Yr2mZgDJDQMHnz9ghAvTTr4JAxJie1oVEbusXyoWZCuPHx0LzpTcI9y3mFJNCrCnpLpZM2e/dvW6HGZ4wmibhRpT6KyyJJl5BEc1k4kzXtSSbbozzyuyD80uZTTQ9j2NiK9K5waNFSOCkqZ1S1lJbIiZl5VqXOItzjcsImcwXOktFQ9LYEva/Fa1Sp/AdLpdLnb099Np7XyW5fmo5au4y9FeNwTASjOxRytuR1y3AqkuyCbBBV53LnNUS2YsqCl1+ZP0N4Dn+gLtvxXpR3vDUr1ffOQexT+73teIx6U988NRfW3vG+lLtgrnGw5iK8nyXowI04P+EhVP2a+HJw1+KyPynZAK02KfORF234r0o73hqV6va/cNPfPDUX1t7xvpS7YxbgDklzSSGHWuERXHP7TIhAQmtuPKSXrdDgfml/75W6HA/NL/AN8rdDgfml/75W6HA/NL/wB8rdDgfml/75W6HA/NL/3yt0OB+aX/AL5W6HA/NL/3yt0OB+aX/vlbocD80v8A3yt0OB+aX/vlbocD80v/AHyt0OB+aX/vlbocD80v/fK3Q4H5pf8AvlbocD80v/fK3Q4H5pf++VuhwPzS/wDfK3Q4H5pf++VuhwPzS/8AfK3Q4H5pf++VuhwPzS/98rdDgfml/wC+VuhwPzS/98rdDgfml/75W6HA/NL/AN8rdDgfml/75W6HA/NL/wB8rdDgfml/75W6HA/NL/3yt0OB+aX/AL5W6HA/NL/3yt0OB+aX/vlbocD80v8A3yt0OB+aX/vlbocD80v/AHyt0OB+aX/vlbocD80v/fK3Q4H5pf8AvlbocD80v/fK3Q4H5pf++VuhwPzS/wDfK3Q4H5pf++VuhwPzS/8AfK3Q4H5pf++VuhwPzS/98rdDgfml/wC+VuhwPzS/98rdDgfml/75W6HA/NL/AN8rdDgfml/75W6HA/NL/wB8rdDgfml/75W6HA/NL/3yt0OB+aX/AL5W6HA/NL/3yt0OB+aX/vlbocD80v8A3yt0OB+aX/vlbocD80v/AHyt0OB+aX/vlbocD80v/fK3Q4H5pf8AvlbocD80v/fK3Q4H5pf++VuhwPzS/wDfK3Q4H5pf++VuhwPzS/8AfK3Q4H5pf++VuhwPzS/98rdDgfml/wC+VuhwPzS/98rdDgfml/75W6HA/NL/AN8rdDgfml/75W6HA/NL/wB8rdDgfml/75W6HA/NL/3yt0OB+aX/AL5W6HA/NL/3yt0OB+aX/vlbocD80v8A3yt0OB+aX/vlbocD80v/AHyt0OB+aX/vlbocD80v/fK3Q4H5pf8AvlbocD80v/fK3Q4H5pf++VjHDzjFnjsMs8HitufLyZjIi7ykS27b8V6Ud7w1K9X3vvL7530988NRfW3vG+lL9xvivSjveGpXq++dxVT3v5SdHvnhqL629430pfuN8V6Ud7w1K9X3xOI0v72nIlk988NRfW3vG+lLtkKDpoOmg6aDpoOmg6aDpoOmg6aDpoOmg6aDpoOmg6aDpoOmg6aDpoOmg6aDpoOmg6aDpoOmg6aDpoOmg6aDpoOmg6aDpoOmg6aDpoOmg6aDpoOmg6aDpoOmg6aDpoOmg6aDpoOmg6aDpoOmg6aDpoOmg6aDpoOmg6aDpoOmg6aDpoOmg6aDpoOmg6aDpoOmg6aDpoOmg6aDpoOmg6aDpoOmg6aDpoOmg6aDpoOmg6aDtzxXpR3vDUr1ffPhJxj70nGtdxPfPDUX1t7xvpS/cb4r0o73hqV6vvocfdHv+8JdVpOzXud733w1F9be8b6Uv3G+K9KO94aler792B/60H9/c/ojYe+tcZd/37w1F9be8b6Uu3ZYP8GeJl7J8RweUVqUhzIYiUhrKSZENLpxqllvfelBIaRwm1MOTMPKlOi0yyCm44XIIjxqq1NbceehjMbbS9yYJbI5/BanNOyoqIr7QFcgv3/2GxlhFI8iKVxHNe1sypb9CeK9KO94aler2g2iL83FROc6URr/AHpTaX768faHhqL629430pdte6/x8nAOHfNfPwPozV/7W/8A93vf+YpNPNsnBhwCjuCy1nFXEDNcsty5e7WOpMZx9lzTRdADYNZWxJMqpx37Kpq4ayU2VLdkKIqcnKttA1nRU+dacxQCeQwTgw/8OeZRTJIX+WpW6gGwhtQ85toBACgqq2/8gPkU0rcdiBEyIqqS3IRJVVV/YaPAhx8RYfajTHzM9KJmSGgAgoOkH5KlTuMNtYWbUWPwMIxIpoyJ6R7Trcr5uSpzmGaTBAlS246NkaPZ8qoBEhoiVugeN2DPcjgyjTQtOtsSdAWlTLdSNE5RVLVjkjDwgS1isNMg0qZgbE9I7pBJSzZuTiS1X4LiGC8JaaEeSTHS7gB3bOoqKKLUjElcYwtmVKOA3H0pvPmXFd3iQG8tksnHTRBIbedbzEgCRgJWAyEFVBJU5UTu9u+K9KO94aler+g/DUX1t7xvpS7dwYldfcJxwkkyBuRrdVsh1ht0nsMMSfzzvZtx0QW0+FxWQUqHmcwlCSEWc00SEKCvd7LiHu1hmVuPKKUzledQweLlITQsyVH07Iug6gZiHswW4quVUqPkfnuC5JPMRZyFLJyqtrJ3qjZZswAB93OS5hbSwplVbJa37DQkKGK5hbUiuJZs2YSvmRUXkVFpuQJk2LThNSXmldAeRHdGSaS30qjC241FSKGW6CLIrdAQeSyVF/4Z543XG85cZuOaUlve/GS3ph1HHgQH9E+6yLwjxIjotkKGn8ahNm1DeaejhxijZtfAVES3J3qB4XmhIQeYecYcQS5RztEK2XvUyLTLaKggnzrdVuvKqrxqvbvivSjveGpXq/oPw1F9be8b6Uv3G+K9KO94aler7wGe3z2So/2vwqP9r8Kj/a/Co/2vwqP9r8Kj/a/Co/2vwqP9r8Kj/a/Co/2vwqP9r8Kj/a/Co/2vwqP9r8Kj/a/Co/2vwqP9r8Kj/a/CkyF3L+8eGovrb3jfSl+43xXpR3vDUr1f6fLbtTlzJb3jw1F9be8b6Uu2oCTgex8xOIRoAuomHSisSr3lS9I1h8JzGJL7MJHycajtN4Y7mzFbiQiHMojxJU5mI63Dw2axJWETKqEl8mjFA06kgdjxKVlqZAmHh2AwUjicUwBp2W84wTt9KWQbpmctxqHFUnDpMzSYWrUvg5g0Iz3zYIXGkcVbjkzD2XHUvCnBwmZh8TK5FcRZJyW2c6qou/m0u7ceWpEaQ7BeZyPsMkwhA82h2UCNzjFe7f8Aa3xXpR3vDUr1feCUFVePiulSPs/jUj7P41I+z+NSPs/jUj7P41I+z+NSPs/jUj7P41I+z+NSPs/jUj7P41I+z+NSPs/jUj7P41I+z+NSPs/jUj7P41I+z+NLmJORfePDUX1t7xvpS7aYbcOO4rjJEKErZqCgpAq8i5SVLp3FqM06rakramCFlUhUFVL8lxVUX5q3P4ay3KBQkA3GbEXQ+SaInZJ8y1h0YG1jDGUEaFEVgb2bX6CZl4qwaDGZR4XtG0wADpQtlOyJ8JLcS1CYLTuA49dsV0ht2QSLvqOVLKveplsXHsqumIohHlSyZl7tk/a3xXpR3vDUr1f0H4ai+tveN9KXbQopmthReT51X5kqa5m+igIPSi1NkczezU2RzN7NTZHM3s1NkczezU2RzN7NTZHM3s1NkczezU2RzN7NTZHM3s1NkczezU2RzN7NTZHM3s1NkczezU2RzN7NTZHM3s1NkczezU2RzN7NTZHM3s1NkczezU2RzN7NTZHM3s1NkczezU2RzN7NTZHM3s1NkczezU2RzN7NTZHM3s1NkczezU2RzN7NTZHM3s1NkczezU2RzN7NTZHM3s1NkczezU2RzN7NTZHM3s1NkczezU2RzN7NTZHM3s1NkczezU2RzN7NTZHM3s1NkczezU2RzN7NTZHM3s1NkczezU2RzN7NTZHM3s1NkczezU2RzN7NTZHM3s1NkczezU2RzN7NTZHM3s1NkczezU2RzN7NTZHM3s1NkczezU2RzN7NTZHM3s1NkczezU2RzN7NTZHM3s1NkczezU2RzN7NTZHM3s1NkczezU2RzN7NTZHM3s1NkczezU2RzN7NTZHM3s1NkczezU2RzN7NTZHM3s1NkczezU2RzN7NTZHM3s1NkczezU2RzN7NTZHM3s1NkczezU2RzN7NTHb/AE0BU6EShsba2JE5PmVPmXt3xXpR3vDUr1ffSURXlVKfc+stPufWWn3PrLT7n1lp9z6y0+59Zafc+stPufWWlVbLZCX33w1F9be8b6Uu2v7B3+YP2W/sGv5j7d8V6Ud7w1K9X31EVKZD6qUyH1UpkPqpTIfVSmQ+qlMh9VKZD6qUyH1UpLJ774ai+tveN9KXbX6u7/MG8AkkOMbgAS2QzROxFf4rW5ZNPk+FwnsM38MlCIrLjA4QCt0E1SxDf5l3tzD+M+57minSeENRmG37IWgEnOM3EReOyWSsIkacMSGBiEN42mnYbl00me5ZSyIqEmRVzJyU7pnsDFeFNpxdloEkIIqvL2JJUY9F7j+6WgumbLodNkv36HJwmM2+gKtyEXBul6aV0sXfkNA6JJlbVhgnlVfqWpwXALkIVRUX+9P2GMRARUiIlsiInKqrUxqVGeRVB5oswrbiqcw5LiAByGBNFNtD+CpJvfq7X8x9u+K9KO94aler+g/DUX1t7xvpS7a/V3f5g3o7r4PCKPaHjdAUVCzgHx1C18ndqa2auzODhJUCEVuts2VeOnFcGK1lzqlrkq5iL+9V3t0I7nJzuMYjLiYg+QNI+xMfKQDzLj6K2RohZSGsYl4tCH8pODhheISWW2ikRkVrsh0YNoY58yIVQsHh4oQabDWtEy1IVhzCwRwo6cRZcyFny1ut3S//AAlpkj8O/Mf+EzZMmX4FYlHw6PM3CYa1GekmjYOusuuEbYEXKaIadjTJjhTm6rdIckHwURETfl2SQPcC6pnvXB13OHFhZliW4GWJIrmlWPk7H4GTPl/YZLotOsBDxg8kmC9bRQ3j/wDmWacKVOklpZ853jdkOrxqRL3u8m9+rtfzH274r0o73hqV6v6D8NRfW3vG+lLtr9Xd/mDfwlPdLhGnR/Tvf1nysubLvihJ3lS+8iXTkXeRFst03kRETkRP2K/V2v5j7d8V6Ud7w1K9X9B+Govrb3jfSl21bKok2qryJnsqKvN+yy3DKLYr38l1Vent3xXpR3vDUr1f0H4ai+tveN9KXbSXRaN0E7wuGKcyLT0jXOddPSNc5109I1znXT0jXOddPSNc5109I1znXT0jXOddPSNc5109I1znXT0jXOddPSNc5109I1znXT0jXOddPSNc5109I1znXT0jXOddPSNc5109I1znXT0jXOddPSNc5109I1znXT0jXOddPSNc5109I1znXT0jXOddPSNc5109I1znXT0jXOddPSNc5109I1znXT0jXOddPSNc5109I1znXT0jXOddPSNc5109I1znXT0jXOddPSNc5109I1znXT0jXOddPSNc5109I1znXT0jXOddPSNc5109I1znXT0jXOddPSNc5109I1znXT0jXOddPSNc5109I1znXT0jXOddPSNc5109I1znXT0jXOddPSNc5109I1znXT0jXOddPSNc5109I1znXT0jXOddPSNc5109I1znXT0jXOddPSNc5109I1znXT0jXOddPSNc5109I1znXT0jXOddPSNc5109I1znXT0jXOddPSNc5109I1znXT0jXOddPSNc5109I1znXT0jXOddPSNc5109I1znXT0jXOddPSNc510bpp3icMk5lWksidu+K9KO94aler+g/DUX1t7xvpS/cb4r0o73hqV6v6D8NRfW3vG+lLtokRvEcXcjSLpe7YwZD/8AM0lcJcaYwk5ZsNNCWZBdFu6Le+bsuIajPYM7ExDCll8MVlR4HMfUFPMBGKJYCRe6lQpEYDJdGL4oBkHcNRvcc3eKxd9P2w8V6Ud7w1K9XfxRzDIeGOaCXLY7CQ9IT4YofKAhX5Rt1HnWVt1+UbdR51lbdflG3UedZW3X5Rt1HnWVt1+UbdR51lbdflG3UedZW3X5Rt1HnWVt1+UbdR51lbdflG3UedZW3X5Rt1HnWVt1+UbdR51lbdflG3UedZW3X5Rt1HnWVt1+UbdR51lbdflG3UedZW3X5Rt1HnWVt1+UbdR51lbdflG3UedZW3X5Rt1HnWVt1+UbdR51lbdflG3UedZW3X5Rt1HnWVt1+UbdR51lbdflG3UedZW3X5Rt1HnWVt1+UbdR51lbdflG3UedZW3X5Rd0/nSTt1K4bJOMTuHTiREdPQ8ZtO7/AIai+tveN9KXbWJS4L+HTFlR342iU0NWXGFRUeBwVRRdXuVjOIzHjhnEJ5zQAWjJ0XeRpoBuijWkcR8YAusrkVoxgPOPAKiQrdCV1UPvpUqS+y0RaHhBo4TbfcbQrIqiPIma6/th4r0o73hqV6u//wCaMV/3R9u/8/8A7F7f8NRfW3vG+lLtq63WyIiXVVXuJUdofmNxUXoFaaj60timo+tLYpqPrS2Kaj60timo+tLYpqPrS2Kaj60timo+tLYpqPrS2Kaj60timo+tLYpqPrS2Kaj60timo+tLYpqPrS2Kaj60timo+tLYpqPrS2Kaj60timo+tLYpqPrS2Kaj60timo+tLYpqPrS2Kaj60timo+tLYpqPrS2Kaj60timo+tLYpqPrS2Kaj60timo+tLYpqPrS2Kaj60timo+tLYpqPrS2Kaj60timo+tLYpqPrS2Kaj60timo+tLYpqPrS2Kaj60timo+tLYpqPrS2Kaj60timo+tLYpqPrS2Kaj60timo+tLYpqPrS2Kaj60timo+tLYpqPrS2Kaj60timo+tLYpqPrS2Kaj60timo+tLYpqPrS2Kaj60timo+tLYpqPrS2Kaj60timo+tLYpqPrS2Kaj60timo+tLYpqPrS2Kaj60timo+tLYpqPrS2Kaj60timo+tLYpqPrS2Kaj60timo+tLYpqPrS2Kaj60timo+tLYpqPrS2Kaj60timo+tLYqO0vzC4qr0ilXSyqiovEqKncXt3xXpR3vDUr1d/wD80Yr/ALo97C4OJq9PjxljyWAdyA0Ge6Zvl563N4NhBjASQj7ERpo88c0MBRR+XbLvbnxxjEMZgrNcV6YUVtlpTcEQaUVFM+VvMpndOO2WpRYbGdxvE4gPyM/C1GIw08jZg0LgCtnL5kqdhrpvS57T0h6ezEB0WCBAJsJZNFbjpxoIZ46eFsARqZC4DbRqSrx3FdLWNwImKzZc2EDTyvLwmQzI0IIKgBCAlyIpWoVQhVUVO8qdobkXpmFTI+VXGJjAPsI6lxkNIriIRh8g+JaNt0hbB+O+38F5h3jBy3KN+6K73/P/AOxe3/DUX1t7xvpS7a5BacNP4oopfp/ZZLITTZr/ABuSf/rt3xXpR3vDUr1d/wD80Yr/ALo96UuFsnMVXMRbkBGZcaUCu1Pz9i4CLxgXKFbsos/C3mHXJ7ECWDzROgaZNLot7c9hmMNQUMYZS+EA4yBkritoUd1pSbzEpWKmYTrsfGJWJ2VtRA3JbbbRtkgENm8rSIiJZahRosWE/JdjtM6RcvCSFVFVcIlVEy8VYJhMxwsTTEo6PA9kjykEQzgIuChIqAlxPMlYDhL8qFLkS4MpwH88d993TKaILqCeUuMRNCSiUiJVUiVbqqr2hgrOKEw0SxWHyswMj4jjoWXSAHLk4r1MclTJTiuPvuLcjJd7/n/9i9v+Govrb3jfSl21+ru/zBvyXNO8BOC0yy485kHlPK2iqgp36kA+w+GZt0F7Ek3pAPJHkOR3cvxHWlsYr86UY51HNlvx279qMSUCymiLfKVr2XvLZd9xG2mmyNw15BEUuqrUpVXGGFegorZorjaNo4pKipcEQVT4Vv6UoGEkyWozKl8Z55coAnzktPgDcZtTfK/wBEcyqX91OI4y82LjZpyEBJdF3pIHJh6PhDScrelTMF/4p/SngCx8Rj4e7dCRElSBAm2r2spFpB5P6UoEmOxzktx/jE02SCR/wRSTekA8keQ5Hdy/EdaWxivzpRjnUc2W/Hbv2/SP6u1/MfbvivSjveGpXq74KCrulxI7L8k5BkK9uhcWgnkfzDwN0d/w1F9be8b6Uu2v1d3+YN5kXX87TLAmtg0rxo2KmvcFFK617uY3iTsPxHAXjPmJhtsqfF17O68+QJYNK8auEgJ3BRS4t7dVMge5WN43KhxGG2VZcOOquqsjSARGh2tZFSsfxFlHtycaYrLeg0dlk8cfsmlXRfa+lW6nFHZGGysWNlHUjZCfagNOA+aC0NzT6tbrZWJN43iceHNgutMcHVJbamhxtGAkGjt3SK41jGKx3ZuISGUE2I7+DzGizm0MR5hMzZ2RLZ1utYrw7Ecdmt4UcsWkj52nyU3yQBvbIwJU7wV/BME9ycLfFBVG5sgEkuZUK6f2SVIFncwuHsRpyKKJo8QkRVmqREv9mKCFu+VSW291c6WzJgXbH81CksLOykP0NGbF6kaLcrwJmLLziiZJ0mMs3OSr8gEELd86maHGJ2MxJqKLYIreEyGSmK2txt2Ctkwq1jcjCYoYO5iT70UWlffVHkZFsVdE0EQ5SrdAsxyN+UuDg6SNE0KlCcBhSbJBG2Zc65q3R4nIFi6Gy7wfI9pMIaVFcyNCtwvYctq3US5A4m9AgysPNplIgsvxiJEasGdCDKliUqxJRnw8SxVmPIyB2As4gbLY2tbiFLVunl4S0y1hREkJGdMZmwSCRq8DlgS1GyWKNzCw7hSt2ZVxJ/AOFZfk/HtW6s8YRvCJD7cbEhZR1JLeWzoKwDf5lM13B7lbrJeMhjWJJAmxpLbCBmcZN1Ho2iAFDIocaXVMtbsH1mLjDcQIZMMcDVl7EeBfnBQM5FYs10JK3RzMTgLudPE3HZgsobLjD2Q1FWQbTIole1PDDxHGN1+FYo668KEjL0yaLoIaeKGw1jUvHmn9zmK4i21NFnSsyYCNrdFYBv8ANHpOMaLdBNYnuiGJriLMBqIgG0pI7F0BZwylaw8dxrdhNKW1PEOBIzHSI4xw7gyg4mjzqSj3UKpaO43FxuRLjqbYdnhLLCTUHk7qqke9YsjURzGMBgYS4rTZhZ91rTufSQ9Pk/w1i0zGG4m4zG8WMZSNZ35MV1lQvoQCyWNRRErd5Km+7WNYbHmx3mYyMOBK7NUjZGxINmt1UyB7lY3jcqHEYbZVlw46q6qyNIBEaHa1kVKx/EWUe3Jxpist6DR2WTxx+yaVdF9r6X6R/V2v5j7d8V6Ud7w1K9XfxRnDMYcABkg8F48jLxIZZOMDrHdy/lMr2FY7uX8plewrHdy/lMr2FY7uX8plewrHdy/lMr2FY7uX8plewrHdy/lMr2FY7uX8plewrHdy/lMr2FY7uX8plewrHdy/lMr2FY7uX8plewrHdy/lMr2FY7uX8plewrHdy/lMr2FY7uX8plewrHdy/lMr2FY7uX8plewrHdy/lMr2FY7uX8plewrHdy/lMr2FY7uX8plewrHdy/lMr2FY7uX8plewrHdy/lMr2FY7uX8plewrHdy/lMr2FY9uY18r2FYgmI41LZ0LslAyNNNXvkZ3/DUX1t7xvpS7a/V3f5g3o4PsPhlcaNOxJKjuI66Atk688484oDyBmcUlQU7yb8JOC4sck5zWkP8AOFLSzq3vcc1+5TUliThjYNR3Y8p5hVZAkJGXdGSaVu4pcTulA6zieN4RMjKPCngiuPvR9ALjjKFo89rJny3qG8smK1ZgHZT77EYiSx8HacMgav8AQRKhyA4LIORGjLLkFEYeNFQjajkatiXGvINI+21gwSRiMK6ToXk/CMldzGpIl0Hj4kJaN01lTpMx91xUUzdkGpryIiWG+UfopWCNLhs2Yct+NmOxvm7plO97p2VQxXEmoRQwk3K4sGedRte3LWCte5kuUUqRGzHY3icR5Tve/wAJKgAWIDAcgjIuSEkdws5Bzpy8tbn406FhTTjTTZYhKhT2c1rKzLAlJR+WBctQYouSN0KY2EWK45ooz7aALIifYK4oI2ikqpYipiSL+IR1Ymi3LfbZkAreiTStAaARIK2QrXSol2sJeZeghnNNEbAK2C3vcrIvdrDHnGprrj0iMsySMUn3eMnkZQ0AXF+WiXqPLZnSRAH5USbJiuOAA5EAlZMbhbuVgzWiTCSwrQXPQcEIs5N6K+TjVL5rZqiPSFkxViGs2S9MLgy8rAcIM8rXfFKiySeitG1E4RLkSQjAfEQxweMxaRfo1A/93NyQkAxpHOJ0JCShLNmzcTiZqF5t6Xhp4c6+y4onwV00M20RbjYrWVbXrD25MMHWnUYJSEMzS3G6CqXRO9UV9+TLY4O8/NlPzXFYvfQoUgzVG/opUSRpIoEEQHpch9qKJpYkjtumQtXT5KVh9sNE86R9K58LTae+fNm+Hx8tQgTESgpBKVcsyxxPSIFr2tmrCgaw6NLCWzHEzRBebf4SJXvfic47Uw2uIt4e/CYddzE2jT5CZCYIqISKTY37tbnIGEtYRiLU1x9jEpMxoyYTibhsPcUdsysq1CTguLHJOc1pD/OFLSzq3vcc1+5TUliThjYNR3Y8p5hVZAkJGXdGSaVu4pcTun6R/V2v5j7d8V6Ud7w1K9X9B+Govrb3jfSl20tkJpwU/jcVt0fstyC02C/xRSW3T274r0o73hqV6v6D8NRfW3vG+lLtq6WVFRU4lRU7qU+0Sd821Vegkp2Pqi26dj6otunY+qLbp2Pqi26dj6otunY+qLbp2Pqi26dj6otunY+qLbp2Pqi26dj6otunY+qLbp2Pqi26dj6otunY+qLbp2Pqi26dj6otunY+qLbp2Pqi26dj6otunY+qLbp2Pqi26dj6otunY+qLbp2Pqi26dj6otunY+qLbp2Pqi26dj6otunY+qLbp2Pqi26dj6otunY+qLbp2Pqi26dj6otunY+qLbp2Pqi26dj6otunY+qLbp2Pqi26dj6otunY+qLbp2Pqi26dj6otunY+qLbp2Pqi26dj6otunY+qLbp2Pqi26dj6otunY+qLbp2Pqi26dj6otunY+qLbp2Pqi26dj6otunY+qLbp2Pqi26dj6otunY+qLbp2Pqi26dj6otunY+qLbp2Pqi26dj6otunY+qLbp2Pqi26dj6otunY+qLbp2Pqi26dj6otunY+qLbp2Pqi26dj6otunY+qLbp2Pqi26dj6otunY+qLbp2Pqi26dj6otunY+qLbp2Pqi26dj6otupDQ/ODaovSS1dbrdVVbqqr3V7d8V6Ud7w1K9XfmnDYhlon32uJ03U+EiF3EGt1uM+WvbVbrcZ8te2q3W4z5a9tVutxny17ardbjPlr21W63GfLXtqt1uM+WvbVbrcZ8te2q3W4z5a9tVutxny17ardbjPlr21W63GfLXtqt1uM+WvbVbrcZ8te2q3W4z5a9tVutxny17ardbjPlr21W63GfLXtqt1uM+WvbVbrcZ8te2q3W4z5a9tVutxny17ardbjPlr21W63GfLXtqt1uM+WvbVbrcZ8te2q3W4z5a9tVusxny17ap/hDqskcSSqIhlo+NQPf8ADUX1t7xvpS/cb4r0o73hqV6u/wCGZvpi7d/5r/bOb/hqL629430pdscaL+zXEnbfivSjveGpXq7/AIZm+mLewvhj+lfXjcMbA13EQVRKwbRWju2K7rbjLojdLpmstt55WQw9F90mc3Zuoq/mlZv3TXsF+Ty1Mi8KjtA+9CFTztNnb4yjlVRzJmRFulR2JYYbMGG60puChOHnsQqNlsmjWoLUVnC5QsmukcM3EcVUH4SqnFlrEo0V0JbAaY9IQqLzOlREEBJf4ralBtxZLkdlMjrguG2tr52xIRFV5FJUrlT3/A3H4Uhqyk2+2LjaHyOhc0uQ94qIDVAFxpweRxo+MSt3L95d7/mv9s5v+Govrb3jfSl+43xXpR3vDUr1d/wzN9MW9gfDWdK4QmL2TsXOUVRRWtyvBkOMbLN3hQGsyWugCG8IKEpAQ1W90yFmS1QojcmQyDL8wEPSm2GXiVFJQRVypmVEutYdCjpNmBLkuNCedx4M/HcyKyLpF4k4qgRJIYkYm+wekEM4lmFRUDEkt/GsJw+S2+808rZi4AibTejHLozFUS3KlRo0kyfdebM9ImiJ3jJBECEVHvCSKnaGHtzFbBVZbdX82jvxSMfjiPye7T5vvvmpuOGt1JV3v+a/2zm/4ai+tveN9KX7jfFelHe8NSvV3xUVXGJhWXvE6Sp26N0AZRFqDTf8NRfW3vG+lL9xvivSjveGpXq78xuFONEF0TFdE7l4rrbjQqxPBta97KsTwbWveyrE8G1r3sqxPBta97KsTwbWveyrE8G1r3sqxPBta97KsTwbWveyrE8G1r3sqxPBta97KsTwbWveyrE8G1r3sqxPBta97KsTwbWveyrE8G1r3sqxPBta97KsTwbWveyrE8G1r3sqxPBta97KsTwbWveyrE8G1r3sqxPBta97KsTwbWveyrE8G1r3sqxPBta97KsTwbWveyrE8G1r3sqxTBtc97KpSS8Qfb0ZvIlgAL3yhv8AhqL629430pdscSJ+zS9t+K9KO94aler+g/DUX1t7xvpS/cb4r0o73hqV6v6D8NRfW3vG+lL9xvivSjveGpXq7804TEI9FIfa7F1x1PhIhdwRrdfjXlz+1W6/GvLn9qt1+NeXP7Vbr8a8uf2q3X415c/tVuvxry5/ardfjXlz+1W6/GvLn9qt1+NeXP7Vbr8a8uf2q3X415c/tVuvxry5/ardfjXlz+1W6/GvLn9qt1+NeXP7Vbr8a8uf2q3X415c/tVuvxry5/ardfjXlz+1W6/GvLn9qt1+NeXP7Vbr8a8uf2q3X415c/tVuvxry5/ardfjXlz+1W6/GvLn9qt1+NeXP7Vbr8a8te2qkcIeJlTiSlREMsnGoHv+Govrb3jfSl21hEudnvm4OTA5LfK0zjfL81bkMX1kH7xvEC8Cxd6MzkHLZsOS9Y40WH4czHPgwMFnj6VB4yJA7LNfuKtYlnkOipNXbMQcsl1QSJERVqUPC5WJvRIzTLREZ5O8AXX+K1GfcfcacRhwGs7bZpayu95LrWGzjb9ymkcb4LkJZpLxmSr8BpUo8PQZ+JJHXCQC7gNkq8aOCq3X9ht0UFFbB13gbrAoJaMlRG8yEhXK1koJSuiwD0gGY7j3BxNMyK6rYrlp5x92QwL7Dcdo3ycbLkIEbRbpUl4mjMGyfSO7omnDXKgOnlsBXW1lpZLhsAJyNBHdeRkSS6K4rYqg8XH37VIRxwGGX+JFsTT18hivIQrZeNKckSFlNk4y0xHddcJsCyqeQRVUG/dWnkdZcvlJLpyLZUVFsqKipZUXt3xXpR3vDUr1d/w1O9OXbv8Azf8AtnN/w1F9be8b6Uu2sXlwcl83BxYLPf5Wmbc5Pmrdfi+rg/d97cYU5qbir8pt1J8drsTXi4lVawnIuLwMPGMGmaW7jYhpAvm+LaoSaHCGnRmqhgmiu0Ap3blxp3KwvhLxPyGJMMnWczbDi3R1klKyL30p+XnR4AcjNvC2042RIpE4hcuS3FWJYo6LStjCF2SBcMAW1Sz1u4i/Bva1bjSxB9pUSE0k6O2xG+cRuV1/YbBor2JARcMhuo0qupnWxtOLxA6iL37LWHYrJDEXQkNcEnDH0Z6IW1beRXATiy8RDeogtRo+BBETK5nQHEczKCKXZKnz1F/4p/EZTwN5w7IHJiuit724xrBHcQbny1lMOtutAgmbYgoPaQhVERR5UvxU6hy24S4bNdQkCzD3K4Ob+xLjFKhz34a4azDRmDKSO61wciyfCNtCBUKoxR3HnnX3WyeV8kNwlJcxlykvd+ft3xXpR3vDUr1d/wANTvTlvQsKdOVukdjO8MhJKNxkIwOaNtVRclYDAblhgUyZGP3NSMSo02XZtHkG+Ut5FQ5uGG+9db3NJbzP8raViEHD2GnWGezJ1y5uso4lsoEVu6verRxjizp8adJMiVvOwoIADa9yVb2RKFDfHQK4xo3RUeEGICiGQoBLc0RURaxGPPzY/h8F1Y6uigg8jukTsxG98iWKsSiC9LgvTI0ZdIpm2wpoV1QVEVXRLa69oYC5IgyGbKbUhoXW0PkdBM6XIfklxLRAaoAuNOByONHxiVu5fvLvf83/ALZzf8NRfW3vG+lL9xvivSjveGpXq7/hqd6ct5rFNJDxhzEGCiA0YlpGBZUT0hD3qbxxyRG3PzcKj6dpgAJJd+zNRcJeK+9geHyeBRjYYfNZAuIBum9x6N0RVUJxbcVNsijjzTq5EVFu00jScqrxWSmIrkeXJlyH45CejM5SoSrbNdFBUuCpxpTDASwJklmCriukrCoorYjUEK4pdRFFWsHw6MreIsT10Yu9m8xny3zGtg7NeJKaZVYMF6G1dF423lcupcfwvzq9oYc3NJsCVhp1fzaO/FMx+OI/J7tSDfkPmpuOGt1JV3v+b/2zm/4ai+tveN9KX7jfFelHe8NSvV3xUVXGZhWXvE8Sp26N0bGUReTmm/4ai+tveN9KXbWHJMkYnPWI02T2hFFGO7IUiLKXcaWsMKLM4esR4EdFxsP+FKWJoaWuKiNu4qLWPwnmIxtA4rTwHZXVsHd5CstlqfAMG8OSdJklKAUBokUhyjx5uJMxKtkQax6AsRk0Bx/ThowIuRCK/Fet0eGgbyNqAnIAVVHRQwWyr8ZCS1YjHmNNuK2ZsOIaCaJey27tlv8Atb4r0o73hqV6u/NCFPMRR4XBuy9biuuXjQqxTBdc/wCyrFMF1z/sqxTBdc/7KsUwXXP+yrFMF1z/ALKsUwXXP+yrFMF1z/sqxTBdc/7KsUwXXP8AsqxTBdc/7KsUwXXP+yrFMF1z/sqxTBdc/wCyrFMF1z/sqxTBdc/7KsUwXXP+yrFMF1z/ALKsUwXXP+yrFMF1z/sqxTBdc/7KsUwXXP8AsqxTBdc/7KsUwXXP+yrFMF1z/sqxTBdc/wCyrFMF1z/sqxTBdc/7KsUwXWv+yqXwzEpDejN5Byg2F75W9/w1F9be8b6Uu2kbKPh+KnKkgREKkCxH2EQMvdzuotMQoaRpUqQ5nC6G49EcjoZJZc63NL5u5TsVHpGGQ4zOea9IzuxHiduV2mxaAr2RAHioosZ2bhUBkWs5OgL8V9x9QNco5mizIK0xAiuk/hSLFaeN8FbgSDfUyMmwua57ClqSKXutiUB8c9/6mKLKKJ8XiytRNq3OOOTaCq5k0TeRc37W+K9KO94aler+g/DUX1t7xvpS7aWyJQOmnfFsyTnRKZkalzqpmRqXOqmZGpc6qZkalzqpmRqXOqmZGpc6qZkalzqpmRqXOqmZGpc6qZkalzqpmRqXOqmZGpc6qZkalzqpmRqXOqmZGpc6qZkalzqpmRqXOqmZGpc6qZkalzqpmRqXOqmZGpc6qZkalzqpmRqXOqmZGpc6qZkalzqpmRqXOqmZGpc6qZkalzqpmRqXOqmZGpc6qZkalzqpmRqXOqmZGpc6qZkalzqpmRqXOqmZGpc6qZkalzqpmRqXOqmZGpc6qZkalzqpmRqXOqmZGpc6qZkalzqpmRqXOqmZGpc6qZkalzqpmRqXOqmZGpc6qZkalzqpmRqXOqmZGpc6qZkalzqpmRqXOqmZGpc6qZkalzqpmRqXOqmZGpc6qZkalzqpmRqXOqmZGpc6qZkalzqpmRqXOqmZGpc6qZkalzqpmRqXOqmZGpc6qZkalzqpmRqXOqmZGpc6qZkalzqpmRqXOqmZGpc6qZkalzqpmRqXOqmZGpc6qZkalzqpmRqXOqmZGpc6qZkalzqpmRqXOqmZGpc6qZkalzqpmRqXOqhdFO+TZinOqUt0Xt3xXpR3vDUr1f0H4ai+tveN9KXbSXDKThJ38lkROn9luIFQXBTvZ7oqdHbvivSjveGpXq75ZUHiVUp9z6y0+59Zafc+stPufWWn3PrLT7n1lp9z6y0+59Zafc+stPufWWn3PrLT7n1lp9z6y0+59Zafc+stPufWWn3PrLT7n1lp9z6y0+59Zafc+stPufWWn3PrLT7n1lp9z6y0+59Zafc+stPufWWlzLZcq7/hqL629430pdtfq7v8wfst+rtfzH274r0o73hqV6u//aF/r279L/Rd/wANRfW3vG+lLtr9Xd/mDeluxnXJTLSutEoGgldVsqVuzeEikmwsRyU4LxZbdk32XZcvHUt2S63LeaR10lM8qWVLqu82U1jdU+fuLpjuOHzy7J9DzcrGS7wp30UawyNiXuCDY4jOxOabJPynw06iORt25kh5iVbIl6w4mgxTCJsw1M+zYehPhHcZVESxWIlS9YcbU/c7GxSHFfbkujxxY+mBywKKXudYYWk3RgrUh85DpqKsRSk5rGpcqpaojqOYJiOBiBMn+cf4Q+y6opyW5ctYNDgRpcGVKiyYco5QisMNK6y6hNtrnQLkipTWCNxMaktRo7ETFAkz45v/ANVwhpBROPkLKq5V/YVRQ8q5FJLpfuXRLUrOGYrh7ZPK8nExMYTkcY76/RqA3Bwd/KmEsGi8JME5XXPmPe/V2v5j7d8V6Ud7w1K9Xf8A7Qv9e3fpf6Lv+Govrb3jfSl21+ru/wAwbxOg0ZCaG0qIYkC3RUui1jeIZf8A09mldJpsiPM6qKREa3Uisib0zQ+4uIOy8mTNptJHNjLe6ZbZ71ugi4euLi1w5mVCWUGlaDRi+1lcaUTyoiKhXFaxtqLNwiHLik7NjLKCSM0xdeNwQNlUNTHPdFrHzkvbpDnm7NNhBVo5rKNL2AlZUGsXah4hgDiHGefjq8w4hMKwYuNoYLYhLuFdK3WG5Lx+ZAkuym4yN6AoRgSC0CmVksFhve1Y7FxNmNCkxYsWNDWIFpQaJ1127jik4QXHisKVuihu4dhipoUaw4Wpj4AlgGQ+pkK5e6oAKl+w2GsyuBPI8yp9xe8vfFe6K8S0lkTe/V2v5j7d8V6Ud7w1K9Xf/tC/17d+l/ou/wCGovrb3jfSl21/YO/zB+y39g1/MfbvivSjveGpXq7/APaF/r279L/Tf8NRfW3vG+lLtorONlcVXk+dF+ZahO37qioKnSqVCkc7e1UKRzt7VQpHO3tVCkc7e1UKRzt7VQpHO3tVCkc7e1UKRzt7VQpHO3tVCkc7e1UKRzt7VQpHO3tVCkc7e1UKRzt7VQpHO3tVCkc7e1UKRzt7VQpHO3tVCkc7e1UKRzt7VQpHO3tVCkc7e1UKRzt7VQpHO3tVCkc7e1UKRzt7VQpHO3tVCkc7e1UKRzt7VQpHO3tVCkc7e1UKRzt7VQpHO3tVCkc7e1UKRzt7VQpHO3tVCkc7e1UKRzt7VQpHO3tVCkc7e1UKRzt7VQpHO3tVCkc7e1UKRzt7VQpHO3tVCkc7e1UKRzt7VQpHO3tVCkc7e1UKRzt7VQpHO3tVCkc7e1UKRzt7VQpHO3tVCkc7e1UKRzt7VQpHO3tVCkc7e1UKRzt7VQpHO3tVCkc7e1UKRzt7VQpHO3tVCkc7e1UKRzt7VQpHO3tVCkc7e1UKRzt7VQpHO3tVCkc7e1UKRzt7VQpHO3tVCkc7e1UKRzt7VQpHO3tVCkc7e1UKRzt7VQpHO3tVCkc7e1UKRzt7VQpHO3tVCkc7e1UKRzt7VQnc301BB6FWiRTNbkqcnzInzJ274r0o73hqV6u+SCXdTuUbfOvVRt869VG3zr1UbfOvVRt869VG3zr1UbfOvVRt869VG3zr1UbfOvVRt869VG3zr1UbfOvVRt869VG3zr1UbfOvVRt869VG3zr1UbfOvVRt869VG3zr1UbfOvVRt869VG3zr1UbfOvVRt869VG3zr1UbfOvVS3Lf8NRfW3vG+lL9xvivSjveGpXq/oPw1F9be8b6Uu2nkByY+rEcV+O4jZOqKf4QVaP88TSuoNl+AioKrfk5Vp5GxekNMAtlW7jxIADxd9V/bHxXpR3vDUr1f0H4ai+tveN9KXbUWW8xDx1xyQsaM7JMALD5TSEoMiZWzGiUONNMHgToAqRpEY0kcJb4xB0BXPlvbipuW8KP4BKh8MORKYGUkt1HSUiUiyoIArlqZxFqTpD4UM9VV7T37Nb/BUL/BVvsLcn7YeK9KO94alervllQeJVSn3PrLT7n1lp9z6y0+59Zafc+stPufWWn3PrLT7n1lp9z6y0+59Zafc+stPufWWn3PrLT7n1lp9z6y0+59Zafc+stPufWWn3PrLT7n1lp9z6y0+59Zafc+stPufWWn3PrLT7n1lp9z6y0+59ZaXMtlyrv+Govrb3jfSl+43xXpR3vDUr1d/+0L/Xt36X+i7/AIai+tveN9KXbRKOe6kScqCPLaorZfOYoS861CY1Y1CY1Y1CY1Y1CY1Y1CY1Y1CY1Y1CY1Y1CY1Y1CY1Y1CY1Y1CY1Y1CY1Y1CY1Y1CY1Y1CY1Y1CY1Y1CY1Y1CY1Y1CY1Y1CY1Y1CY1Y1CY1Y1CY1Y1CY1Y1CY1Y1CY1Y1CY1Y1CY1Y1CY1Y1CY1Y1CY1Y1CY1Y1CY1Y1CY1Y1CY1Y1CY1Y1CY1Y1CY1Y1CY1Y1CY1Y1CY1Y1CY1Y1CY1Y1CY1Y1CY1Y1CY1Y1CY1Y1CY1Y1CY1Y1CY1Y1CY1Y1CY1Y1CY1Y1CY1Y1CY1Y1CY1Y1CY1Y1CY1Y1CY1Y1CY1Y1CY1Y1CY1Y1CY1Y1CY1Y1CY1Y1CY1Y1CY1Y1CY1Y1CY1Y1CY1Y1CY1Y1CY1Y1CY1Y1CY1Y1CY1Y1CY1Y1CY1Y1CY1Y1CY1Y1CY1Y1CY1Y1CY1Y1CY1Y1FaFe+IoKp/BUolLJYhJeVRLkv274r0o73hqV6u//AGhf69u/S/0Xf8NRfW3vG+lLtr9Xd/mD9lv1dr+Y+3fFelHe8NSvV3/7Qv8AXt36X+i7/hqL629430pdtfq7v8wbzgttNipmZrYRFONVVVrGcSwiCsZ1xqX7n9hJIF+ELrqKKNonfRL0QG8pvNq8A5QeRpxQF0U7xol945Re5mNzI7jsaE86zFituZQKQbYqIVhk8wWC2+koIkgxU3HdGnGIZdD42+WoGJQ42CPyVN5yDKAEjxmAeInFMEyuca9hy09LbcnZ0gPPxH2Y8tQTMugdMUE+LjSy8aU7LThTzrMWS5FebiyHWb5waeIUA1TKvd46eSS2kR1YSoKppX7q02FityuWGsSI42DbnXsSx+UDIkruWzQLkAbohKLhrk+TU0eHyICzmmbL2UcSQM9+TlWsXBMNhTDiSJGUrA8DuhUbWv8ACqYPug9BKa2zZeNgTQFO/JyrWJaWOOLJhSkDZqvC1dRnJZEvyry8luOn7T1h8MFpRJMzOfRqQlay5V5U5UulPyZRvypEeOxFjPPvPlFNQdJsGxVVAFTjP4NTDUJmI+5wCTLjboS7KqsuNmKEBJb41NyJMzDsMCecVll1xVacIwbVVAS4lJtb/JTjWmZcSTi6ZGWX4r7KE6DHCDyK4I3BBvY+RamNty8Gl4a3LV0OwaCW83dbl4s6OZHlcGWS21NiPxFeYRbK61pxDMKU/LEJxk3BluxH2osoxS9mXjFANVtcfldykmSJb7RPBEhRXZT+iBbK4osiWUEVbXWpb81cVAygsQ4zr77otfDVGgFSFA5DzImVaxNRivTeBJmZdRwJSIqqy43lzi5xWyql6bxZZ0fjdw5MNlcMFu19KrOTMjf0qnob2NOxYuFyQBCscs0BHcrn9mNzVCTuUEyU3CjQXYzMKE7JeQXANXTNGRWw3RKnHNDFkVcPaiMOPvyEH4WRoBUuw+PdEy1iDjTD+ILAyuR3hdbloKkrDjSjnE+x5FSnJkM40iIy+xLhvx3g4a5omTIHBRdGZcWfkrEASTg0QJc4FRfzTLgqSFzDTk16dJbiPCw1DfMgZlfAccsNmwT45FbLWMuYo/PkSWYyxYDqPSSZcPMIRwzl+bQbEtTcj+Ez8MYmcKYNpWElSmgMXAdQVQkAlprFBkMxEljGcw6UD78fMgaVlsgQnBuvHlrD5MRxxkDcBxh5tu5/2RuiKOJ84/o/9Xa/mPt3xXpR3vDUr1d/+0L/AF7d+l/pv+Govrb3jfSl21+ru/zBvIDj5Gy4jJllB5GnEMmiXvGiWrBsSwiAsZpt2J7odhJIF+ATTSqKNon8L00LbbYoAAKWERTiRERN6BaXjMzHHYbecPzySwUWlveyZvpVgkmXGe3OR8IkFHNi8V4HkPO6jhhdu3dDMtYLIWJiUPFsRj4kBsrHyHhwt6Mhz6RDzB8m1bmXcKZwedEny5xvsGw6kZskEIyNmRrpL/HEbDW5/E8JaTEnnMVaWczJwY2SQ1VyKBmTrZmSoqIIiiVgT+HiU8sQxFklF8GhgXJlsnW7hmN1QNKhONpi81yG2y6hCqwYgrHDiKy2Ms5p30KmGj3U4bLZi4bmeCzkCKwsIFIvpoZPqlRwc3KcBYkSsxChOTY0ZYKCopxrnBRcv8oKZbd3WQJjLEDO+FnYUZhYaKR3REzo4b9qYF3c9EhsTiuYiR4nEjFCDWASGpfKGoY4XumamtRIsR0xesuI/wDDmypt3QrXRy6fIrCHsWgwMAPCJEVlxsJKXcB1JAI8QCSkorpLlWBLwx7dbCxf3GB5rTJFix0iWzqSN6ZU7NUvasDLDI2KblWMNgC+80bqGJvqqPIyRoJXdvW42ekncy/oJuHq/FV54ChLGJ2MWlyEKKXISitbnWmJOM4hgz8CG9Ia42oZtZ9MokSCqIFyrc/KwCLAw3EmSkSH2HXHX50fg+VpI5n+bBCzZitW53HULCX47j8mTjWkw5CifAcjNi6RndU7ESAbVuMmPe6uDsRJWGsSYpyobsR10g7I3G2zbcR3jylW5kJTj2FSIM/DMNdaE4+kk8IBxtXibA+87xpcuNKw0WHZ+7eLjD8HStrwSMxF4Oimt7E4uRCLJUbLFmYXhTEd7MC5zYKQro2TjS2caw96O1gGHSpr/IbKzHiJhkEMbipABGVbkZOKwMTjwG2jivRweRyMBouYX3G+w7Koc+W6LeKJiEHCZyRX464jL4WmhNTaExD4BjesDlMOnu0j4rNblzklSBYajGyjrxmSpn5LiClTeji4luRiwI0nMPYy2n5DnJe6ZM4leorTOL45KksbqGxcCwQJ5BnFFvY1ZbZAEqKgQ5uHYQxEezAuYo2n0g2RbpbONYc1LxGMxjcV3B+Fx25LjMqSkjTR9IaAShlTMl+RawdkZT+6Hc/miA62aCMUo7rgm5dAVwW0uaJUe8KLgmJRnncw9i6+7HIBy3ut0bWsGkQpGEsgwrpmybMj6bKtmS5f+pBX9H/q7X8x9u9zRekHe5UxqT0oK75IJd1O5Rt869VG3zr1UbfOvVRt869VG3zr1UbfOvVRt869VG3zr1UbfOvVRt869VG3zr1UbfOvVRt869VG3zr1UbfOvVRt869VG3zr1UbfOvVRt869VG3zr1UbfOvVRt869VG3zr1UbfOvVRt869VG3zr1UbfOvVRt869VLct/u41H6EIt7xtv4K4XbX6u7/MHvDAPR5DJsvNGlxNs0ykJJ3UVFoUERREFE5ERPeIjbrkN5XoxGN1bcUVDOPeKxKl+08MjzGgcRxsXQQshpyEC8or86VAYhxxVVRpkEAbrxqq25SXur+kf1dr+Y+3eNxYD6t/9Ygqj018B5oXB/gSXSuLSuxpwJ9F5pGV6WV/QfHonZM40+iy0rKX/AMT1LYGWicNfoil1r+sSAwrifTIEUuntoVLJcSFOVQLltUpoF7qGSCqf3LU1jWDU1jWDU1jWDU1jWDU1jWDU1jWDU1jWDU1jWDU1jWDU1jWDU1jWDU1jWDU1jWDU1jWDU1jWDU1jWDU1jWDU1jWDU1jWDU1jWDU1jWDU1jWDU1jWDU1jWDU1jWDU1jWDU1jWDU1jWDU1jWDU1jWDU1jWDU1jWDU1jWDU1jWDU1jWDU1jWDU1jWDU1jWDU1jWDU1jWDU1jWDU1jWDU1jWDU1jWDU1jWDU1jWDU1jWDU1jWDU1jWDU1jWDU1jWDU1jWDU1jWDU1jWDU1jWDU1jWDU1jWDU1jWDU1jWDU1jWDU1jWDU1jWDU1jWDU1jWDU1jWDU1jWDU1jWDU1jWDU1jWDU1jWDU1jWDU1jWDU1jWDU1jWDU1jWDU1jWDU1jWDU1jWDU1jWDU1jWDU1jWDU1jWDU1jWDUpovmAkJeZKFRz2QRXlQR5L9upS3cwl84JJ9BpfzS/3tqK1ZGSUoExe8D6orRr/AAcRB/xfoPjaQkgRC74R1XSmi/ScVU/w0dncWfbgil7dg6v53mbQlpERESyJ+46wxMVQIsku4EkP6k1/60uH8ctBmZfaJtwfoklqNSxCCCXcLlksXsD6d+/IfeL9AnbEJyL+dT/5ZhOI31/hewd8qaRtiO2LbYJ3BFLUt4mEocRjvHJO2mP/AAIiAnz5v3Hhdl4Mp2Wxd9FFe4QrxovcWiT3RhiikaJYZDPIL4fx5DTuFT/Bp8VVOLKQb5FXlEk+M2VrENMJCxMBVTjKtxcFFtpGC+OC86d3t9jhuKOjduOi2FsV4tI8XxA6V7lP8JnylQpUokspqnIIp8UB5BGi/wDeUwFyuWuMZnkJ8/4cgJ3SoVRphtAG63L5yJe6S8qr20dH0UfRR9FH0UfRR9FH0UfRR9FH0UfRR9FH0UfRR9FH0UfRR9FH0UfRR9FH0UfRR9FH0UfRR9FH0UfRR9FH0UfRR9FH0UfRR9FH0UfRR9FH0UfRR9FH0UfRR9FH0UfRR9FH0UfRR9FH0UfRR9FH0UfRR9FH0UfRR9FH0UfRR9FH0UfRR9FH0UfRR9FH0UfRR9FH0UfRR9FH0UfRR9FH0UfRR9FH0UfRR9FH0UfRR9FH28+saZFVTiShS5NmvKip8YC5CHu0wkPEQS6N3u2+KcrjBLbMPfTlHu1HRzIWdo0VQNs/lAY2UV+dKMMbip8FDUWJop3r8Tbn2KWThppypNYNkdYqZF/uKscw9we+MhtU6FrF4WvDrrF4WvDrrF4WvDrrF4WvDrrF4WvDrrF4WvDrrF4WvDrrF4WvDrrF4WvDrrF4WvDrrF4WvDrrF4WvDrrF4WvDrrF4WvDrrF4WvDrrF4WvDrrF4WvDrrF4WvDrrF4WvDrrF4WvDrrF4WvDrrF4WvDrrF4WvDrrF4WvDrrHMPbFO6UhtE6VopGJF8VITJvCv/qImRP7ypBwWMvFYDF6YafxS7bX92emMiGWZwyJTcdL5ThldSL51pkZeJEN9HezbAryOPknwR7ycpdypBSZkkkOXKJLK4SciInxQHkEf3JMI4KEhAt1E2zTkMCSyiSdxUoVxuH3OMWprY97jyg79lamjHld2NJRWHv7gcsqp86b2GxXF+UTQqvSlYRC1AdVYRC1AdVYRC1AdVYRC1AdVYRC1AdVYRC1AdVYRC1AdVYRC1AdVYRC1AdVYRC1AdVYRC1AdVYRC1AdVYRC1AdVYRC1AdVYRC1AdVYRC1AdVYRC1AdVYRC1AdVYRC1AdVYRC1AdVYRC1AdVYRC1AdVYRC1AdVYRC1AdVYbFbVO6LQIvQm9M4RJ/VYqLIf8AqN3VP4rSe4sRe6ii5NNPmtcGvtLTCNoRKRldSMzXlNwlupEvfX9ysNiS0vK28AuDzFehmQUTuRJb7A/UbNBrH8aRO9wpV/1St0GNeVfhW6DGvKvwrdBjXlX4Vugxryr8K3QY15V+FboMa8q/Ct0GNeVfhW6DGvKvwrdBjXlX4Vugxryr8K3QY15V+FboMa8q/Ct0GNeVfhW6DGvKvwrdBjXlX4Vugxryr8K3QY15V+FboMa8q/Ct0GNeVfhW6DGvKvwrdBjXlX4Vugxryr8K3QY15V+FboMa8q/CsfxpU73ClT/RKGXN+aXLfkD9Rw1GojMZlORtkBAeYe3goOmg6aDpoOmg6aDpoOmg6aDpoOmg6aDpoOmg6aDpoOmg6aDpoOmg6aDpoOmg6aDpoOmg6aDpoOmg6aDpoOmg6aDpoOmg6aDpoOmg6aDpoOmg6aDpoOmg6aDpoOmg6aDpoOmg6aDpoOmg6aDpoOmg6aDpoOmg6aDpoOmg6aDpoOmg6aDpoOmg6aDpoOmg6aDpoOmg6aDpoOmg6aDpoOmg6aDpoOmg6aDpoOmg6aDpoP2WN/XubVG/r3Nqjf17m1Rv69zao39e5tUry/8ArObVabXObVabXObVabXObVabXObVabXObVabXObVabXObVabXObVabXObVabXObVabXObVabXObVabXObVabXObVabXObVabXObVabXObVabXObVabXObVabXObVabXObVabXObVabXObVabXObVabXObVabXObVabXObVabXObVabXObVabXObVabXObVabXObVabXObVabXObVabXObVabXObVabXObVabXObVabXObVabXObVabXObVabXObVabXObVabXObVabXObVabXObVabXObVabXObVabXObVabXObVabXObVabXObVabXObVabXObVabXObVabXObVabXObVabXObVabXObVabXObVabXObVabXObVabXObVabXObVabXObVabXObVabXObVabXObVabXObVabXObVabXObVabXObVabXObVabXObVabXObVabXObVabXObVabXObVabXObVabXObVabXObVabXObVabXObVabXObVabXObVabXObVabXObVabXObVabXObVabXObVG/r3Nqjf17m1Rv69zao39e5tUb+vc2v/ALBg5hZREbaRbK66XEIJWKMQWlVcrDUZk0FP4uia1um/7SL7Ot03/aRfZ1um/wC0i+zrdN/2kX2dbpv+0i+zrdN/2kX2dbpv+0i+zrdN/wBpF9nW6b/tIvs6JmTHlPC2MwW0acaMuJMyBYVH91Phxn0Dvva2VP3U+HWfQPf0MZxJh/HIgSWX4scHIkYHVsOlMyRSJOUkTkqK5jKRHCFZEICdbIe4aKnyqwuUyy1J4M4440QiL9s2jJV5Dtx2rApzkl+OMhpoWTzEyfI4n0F79Qn4shv4bTwKBp/cX7rPDrPoHv6G7nBpGCuMgs/C8cdZFWHFX86KNucah3stYtEWL7v52MMk4ieHRQYRtF4SIAom52V0QUrHYIYPjUfD5LM9HwRkJEVoPjqvEpDca4G2/PlRuAtSpRQW3oca4AzpgUcqinHZVstLhxlhsBGCKE+5JFEzXRsnnL51D91nh1n0D37tLcLYdGVFFeQnG0VMt/pCS1BfiPtlYm3gUC6feobwYYDwHLlENg0aLdRFV5SL/wCnRf2F5/6C/tJz/wD2IP/EAE4RAAEDAgAKBgIMCwcFAAAAAAECAwQAEQUSFBUxVFWRk9IGExchUVMWkgcQNEFQYGFicXShsiMwMjNAUmVzpLHiICI1NnBykEKAgaDR/9oACAECAQE/AP8AVhLBUASq1ZP8/wCysn+f9lZP8/7Kyf5/2Vk/z/srJ/n/AGU40UC97j4FaYaLXWvOqQgqKU4qcYkgAnSR3C9YkDWZHBTz1iQNZkcFPPWJA1mRwU89YkDWZHBTz1iQNZkcFPPWJA1mRwU89PMoQhtxtwrbWVAEjFUFJtcEXPj/AGsBxsDQMC4PUvAzUp1cUSZDqkIUpKVmw/KuSToAFYeh4Kl4HwiDgWPEkNxTIYca6s3CDY2Ujw0EfACfyU/QPaRgWzLgfdLb4bdcxBiKCA2nGs5ZV0k6O8aaZjLeZluhQAjoSpQOkhSgju30cEzS2HG2StHVBZVo0pxyO/TYU/gWew6831WMG7/37gAgG1xfxOj2nvzZ+BV+4I31h77qPaX0bmhhpxoh1S22VhsJUDZ5GOACQASBpsaVgjCKG1OGKrFSCSQQbAAm5sdFgSPEUrAeEkhsCOoqKSVJ0FJx1Ixe/So4p7hTuC57LanHIq0oSFEqOiySkH7w9pfuCN9Ye+6j+1gTpD0cXgrBzcvCL8KXGZ6hSm8cFSAfFIIIrDWHui7OCJ7GD5bkh99gMNpsuzbfgCoAAfafgBP5KfoFNOLZdbcQbKQoKT9IN6mYVelN9SlJZZKitTSVrKSpRuTZRNRZjkQPpS22tLyAlaVi4IBCh9oo4YmENgYgDYISAnQCjq/5UekOEC8t5RbLiklJXi95T4G2kDwPtPfmz8Cr9wRvrD33Ue1nSWZDL5WMdplLSBbuCUt9UO76KR0hwmhENHWpIjYuICLghKSkJI0WsbU10kwqy2UJfBBB+m+OpeMSNJus0/hrCEiJkrjoLXVtN2sL4rWgf/faX7gjfWHvuo+B0vLSLdxrKF+ArKF+ArKF+ArKF+ArKF+ArKF+Apbilix+BWpBbQW1NIdRjYwSu/cfEFJBrKWdnx97vPWUs7Pj73eespZ2fH3u89ZSzs+Pvd56ylnZ8fe7z1lLOz4+93np58uhCQ2htCL4qEXsCdJ7ySSf/QJbadeWENtqWr9VIJNZvn6lI4aqzfP1KRw1Vm+fqUjhqrN8/UpHDVWb5+pSOGqs3z9SkcNVZvn6lI4aqzfP1KRw1Vm+fqUjhqrN8/UpHDVWb5+pSOGqs3z9SkcNVZvn6lI4aqzfP1KRw1Vm+fqUjhqrN8/UpHDVWb5+pSOGqs3z9SkcNVZvn6lI4aqzfP1KRw1Vm+fqUjhqrN8/UpHDVWb5+pSOGqs3z9SkcNVZvn6lI4aqzfP1KRw1Vm+fqUjhqrN8/UpHDVWb5+pSOGqs3z9SkcNVZvn6lI4aqzfP1KRw1Vm+fqUjhqrN8/UpHDVWb5+pSOGqs3z9SkcNVZvn6lI4aqzfP1KRw1Vm+fqUjhqrN8/UpHDVWb5+pSOGqs3z9SkcNVZvn6lI4aqzfP1KRw1UuHMbSVriPJSNKlIIA+DWyRBlWNrvMpPyiyzbeP0QAkgAXJqxJIsbirGwNu721JUm2Mki/iKII0gj9DweSJ8P5XkJPygmxHwaj3BJ/fs/dX+hpICgSkKAOg6DupjCUEYURNMMMJZZ/BtMkgl1KbJVdWNYg99DC2BAqbIQgockNyS4FN4yyp9jFCUqFgAFk1LwjgZbuDkIbSqMzLkuKbDRQA24lAQk+JGL3mkz8AGK6VQk5SpoXsiyCvEsMUWNrK7za1YRmYCWwRBiFDnXpsSnQ2brP/kE4v0CpGF8BvykurY60KkjrCtBNmlPvLXi+BKVprDEyBMagmMkhxDDLb5UnvUpDSEXB8Ba1v0PB/u+D9Yb+8Pg1hTSmHmFuBsrWhaVkEpugEWNrn/qrJmdoR9zvJWTM7Qj7neSsmZ2hH3O8lZMztCPud5KyZnaEfc7yVkzO0I+53krJmdoR9zvJWTM7Qj7neSsmZ2hH3O8lZMztCPud5KyZnaEfc7yVkzO0I+53krJmdoR9zvJWTM7Qj7neSsmZ2hH3O8lZMztCPud5KyZnaEfc7yVkzO0I+53krJmdoR9zvJWTM7Qj7neSsmZ2hH3O8lZMztCPud5KyZnaEfc7yVkzO0I+53krJmdoR9zvJWTM7Qj7neSsmZ2hH3O8lZMztCPud5KyZnaEfc7yVkzO0I+53krJmdoR9zvJWTM7Qj7neSsmZ2hH3O8lZMztCPud5KyZnaEfc7yVkzO0I+53krJmdoR9zvJWTM7Qj7neSsmZ2hH3O8lZMztCPud5KyZnaEfc7yVkzO0I+53krJmdoR9zvJWTM7Qj7neSmEMRnmnzMaX1SwvEQF3UUm4HekD/jOlQsGsR1vtYQ60O2ydoD8In9brvC2gW0/8F0mS3Fbx1302AGkms9teQveKz215C94rPbXkL3is9teQveKz215C94rPbXkL3is9teQveKz215C94rPbXkL3is9teQveKz215C94rPbXkL3is9teQveKz215C94qPIbktBxF7aCDpB+JeG/zTH+81GjrkuYiCAbEkmpEVUcNkrQsLF0lJrql2BABBFdUrFJ7u73vfoMunQi/4hDa3DZKSaUlSFKSoWINiKwN7lX+9P8AIfEvDf5pj/eaZedYXjtqsbWp+S9IKS4u+KLDuAoLWBYKrrHCb41da5+v+IBKSCNIrvJJJuTWBvcq/wB6f5D4lvMNSEFDibis0Q/Be+s0Q/Be+s0Q/Be+s0Q/Be+s0Q/Be+s0Q/Be+s0Q/Be+s0Q/Be+s0Q/Be+s0Q/Be+s0Q/Be+s0Q/Be+s0Q/Be+s0w/BfrU002ygIbTZI+JeBcCy8Oy8mjYqcVOOtavyUprs1nbTY9RVdms7abHqKrs1nbTY9RVdms7abHqKrs1nbTY9RVdms7abHqKrs1nbTY9RVdms7abHqKrs1nbTY9RVdms7abHqKrs1nbTY9RVdms7abHqKrs1nbTY9RVdms7abHqqrC+CZWBZq4kkJxwApKkm6VJOgj4l+xr7uwn+4T96sKYQGDIpkFlTtjYJTp0E1gbC6sLJk48B+ItlYSUOixNxRmsJAKioXKwO65JQrEPcPloYUgkJJkJSCspF/EG1DCUQqcSVKTiYtyUkflAq/kPxEqWxDbK3XEp7jYFQBVbwxiKZeakNNvNLC23EhSVDQQa9kf/HIv1FH31/Ev2Nfd+Ev3CfvVNhMz2Cy6VhN73SbHwqDg5jB4dDSnFFxWMorVc6Sf5mkxWErxwg3xioXJNio3Nr6Lmhg+Em2LHSLeFCFFGN+BBxhZRJJJ7iNJ+Q/iHG0uoWhV8VQsbEj7RSUpQlKUpCUpFgB3AAV7I5GfIv1FH31/EvB2EpuCpKZMN4tuAWJsCCD7xBr0/wCkXmMcMV6f9IvMY4Yr0/6ReYxwxXp/0i8xjhivT/pF5jHDFen/AEi8xjhivT/pF5jHDFen/SLzGOGK9P8ApF5jHDFen/SLzGOGK9P+kXmMcMV6f9IvMY4Yr0/6ReYxwxXp/wBIvNY4YqdOl4SkuSZTxcdXpUf5AD/W2VMwY5HWY+D+rkv2625u23byR875dGgf87eAuimFekDbrsUNIaQrFLjqiAVeAsDXZnh7W4HrucldmeHtbgeu5yV2Z4e1uB67nJXZnh7W4HruclTPY8w/DjOv48V8NpKihpaisgeAUkfFX2PP8tt/WHfaZwrCf60h0pQi93FpKEEBWKbKNhpoyYyUlZkNhPf3lQt3aaSpK0pUhQUlQuCDcEfFb2PP8ttfWHfaX0bSpx5wTVoUsgkoQlBVZWNdeLbGV7wV3Gh0UipZS2JLv9xplCDosprFuru/W6tN6gxEQYrMdCiQgHvPvkm5+K3RrppJ6PR3IpiJkslZWkY+IpJPy2NdqX7C/if6K7Uv2F/E/wBFdqX7C/if6K7Uv2F/E/0VM9k6S9GdbjYLSw4tJAdL2Pi398DFH/Yn/8QARhEAAQIDAggJCQUHBQAAAAAAAQACAwQRBYEGEhUXITGRkhMWUVJTVFVgkwcwNEFQYXN0shAUMzWQIiMyQHCAsXGCoLPB/9oACAEDAQE/AP7ERQAaEQKHR7Cp9lCqH2TilUKoVQ+YBFBpRLaGnsIlA0VSsY+yaqpVSqnutcrlcrlcrv8AgF0KoVQqhVCqFUKoVQqhVCqFUKoVQqhVCqFUKoVQqhVCqFUKoVQqhVCqFUKoVQqhVCqFUKoVQqhVCqFUKoe7Y19waiqqFUaFUciJCqEaGn8mPZ16vV6vV6vV6vV6vV6vV6vV6vV6vV6vV6vV6vV6vV6vV6vV6vV6vV6vV6vV6vV6vV6v/TPoOX9C6w7DnLfnPu0titxW473v/ha1ZsJ/tSX3HLNhP9qS+45ZsJ/tSX3HLNhP9qS+45ZsJ/tSX3HLNhP9qS+45ZsJ/tSX3HLNhP8AakvuOWbCf7Ul9xyzYT/akvuOWbCf7Ul9xyzYT/akvuOWbCf7Ul9xyzYT/akvuOVsWRN2JPPk5oNxwA5rmmrXNOojuX5MPT7U+XZ9Stq2ZawpMTUxDiva6K2G1sMAuLnf6kKxregW06dYyVmJeJKvDIsOM0NIJryE8iyhL8I+G4uY5rsU1Go1p/6DeFlCDwzIYDiHD8QUxRXFoNddOOEbVkGhxfHDADoJBAOitRy+Ym5yXkoZfGiNboNAXNaXU9QxiFAjwpmDCjQXh8OI0OY4aiCvKZ+fSnyDP+x/cvyYen2p8u36laVlyNry33ecg8JDDw8DGLSHDUatIVlWJZtitjNkoBh8M4OiEvc4uI5S4lPlYER2M6GCcat+jXsCbISjW4ohUHLU19Xr/wBoWTZLR+4GilNJ0UFNHJ5iLDbGY9j64rhQ0JGi5Na1jWta0Na0AAAUAAXlL/PpX5Bn1v7l2bak9ZE02Zk45hRAKE0BBB9RBWcPCTpYHhBZw8JOlgeEFnDwk6WB4QWcPCTpYHhBZw8JOlgeEFnDwk6WB4QWcPCTpYHhBZw8JOlgeEFnDwk6WB4QWcPCTpYHhBZw8JOlgeEFnDwk6WB4QWcPCTpYHhBZw8JOlgeEFPz83ac1EmpuMYsV+tx0XADuXOzsGRg8JEqamgA1krjLA6s/aFxlgdWftC4ywOrP2hcZYHVn7QuMsDqz9oXGWB1Z+0LjLA6s/aFxlgdWftC4ywOrP2hcZYHVn7QuMsDqz9oXGWB1Z+0LjLA6s/aFxlgdWibQpSbhTsERYVaE0IOsHuXhL+BLfEP+FKy5mYoh44bo1lTkoJQw6R2RQ8EhzEILzWgGgNO8KoysepHBk0AJvFUZaKA00BrXUeQ08xCgxIzsVjSeU0JA2J7HQ3uY9pDmmhCwc9Bi/HP0juXhL+BLfEP+FAjvl347KV94UeYiTGJjBoxRQACiMWIRSuigGrkFEZiMdcQlGPFNP29WrzDXFrg4awiSSSTUnWVg56DF+OfpHcuYloM1DMOMzGbrvWQLO5r95ZAs7mv3lkCzua/eWQLO5r95ZAs7mv3lkCzua/eWQLO5r95ZAs7mv3lkCzua/eWQLO5r95ZAs7mv3lkCzua/eWQLO5r95ZAs7mv3lAgQpaE2FCZitGof1tqOT9dsNJWIViFYhWIUWHuqzV9le7DNX2UWKh3Wa6i4T3LhPcuE9y4T3Iv939if/9k=;dashed=1;dashPattern=12 12;" vertex="1" parent="1">
                    <mxGeometry width="1609.76" height="1100" as="geometry"/>
                </mxCell>
                <mxCell id="3" value="" style="rounded=1;whiteSpace=wrap;html=1;absoluteArcSize=1;arcSize=14;strokeWidth=2;fillColor=#FFFFFF;gradientColor=none;strokeColor=#666666;" vertex="1" parent="1">
                    <mxGeometry x="1609.76" y="80" width="370" height="920" as="geometry"/>
                </mxCell>
                <mxCell id="11" value="" style="edgeStyle=none;html=1;fontSize=22;fontColor=#000000;strokeColor=#000000;strokeWidth=5;" edge="1" parent="1" source="4" target="5">
                    <mxGeometry relative="1" as="geometry"/>
                </mxCell>
                <mxCell id="4" value="" style="whiteSpace=wrap;html=1;fillColor=none;strokeWidth=6;fontColor=#ffffff;strokeColor=#2D7600;perimeterSpacing=4;dashed=1;" vertex="1" parent="1">
                    <mxGeometry x="150" y="240" width="380" height="740" as="geometry"/>
                </mxCell>
                <mxCell id="5" value="&lt;font style=&quot;font-size: 22px;&quot; color=&quot;#000000&quot;&gt;Renderizado de los links&lt;/font&gt;" style="shape=tape;whiteSpace=wrap;html=1;strokeWidth=6;size=0.19;dashed=1;sketch=0;fillColor=none;fontColor=#ffffff;strokeColor=#005700;" vertex="1" parent="1">
                    <mxGeometry x="245" y="80" width="190" height="85" as="geometry"/>
                </mxCell>
                <mxCell id="6" value="&lt;font style=&quot;font-size: 22px;&quot; color=&quot;#000000&quot;&gt;Heading:&lt;br&gt;H1 , &amp;lt;P&amp;gt; y Botón.&lt;br&gt;&lt;/font&gt;" style="shape=tape;whiteSpace=wrap;html=1;strokeWidth=6;size=0.19;dashed=1;sketch=0;fillColor=none;fontColor=#ffffff;strokeColor=#005700;fontSize=22;" vertex="1" parent="1">
                    <mxGeometry x="1660" y="235" width="240" height="125" as="geometry"/>
                </mxCell>
                <mxCell id="12" value="" style="edgeStyle=none;html=1;strokeColor=#000000;strokeWidth=5;fontSize=22;fontColor=#000000;" edge="1" parent="1" source="7" target="6">
                    <mxGeometry relative="1" as="geometry"/>
                </mxCell>
                <mxCell id="7" value="" style="whiteSpace=wrap;html=1;fillColor=none;strokeWidth=6;fontColor=#ffffff;strokeColor=#2D7600;perimeterSpacing=4;dashed=1;" vertex="1" parent="1">
                    <mxGeometry x="687.5" y="190" width="880" height="215" as="geometry"/>
                </mxCell>
                <mxCell id="15" value="" style="edgeStyle=none;html=1;strokeColor=#000000;strokeWidth=5;fontSize=22;fontColor=#000000;" edge="1" parent="1" source="8" target="14">
                    <mxGeometry relative="1" as="geometry"/>
                </mxCell>
                <mxCell id="8" value="" style="whiteSpace=wrap;html=1;fillColor=none;strokeWidth=6;fontColor=#ffffff;strokeColor=#2D7600;perimeterSpacing=4;dashed=1;" vertex="1" parent="1">
                    <mxGeometry x="687.5" y="420" width="880" height="540" as="geometry"/>
                </mxCell>
                <mxCell id="9" value="&lt;font style=&quot;font-size: 22px;&quot; color=&quot;#000000&quot;&gt;NewLink, abre modal:&lt;br style=&quot;font-size: 22px;&quot;&gt;Nombre, Select, Input y boton descartar.&lt;br style=&quot;font-size: 22px;&quot;&gt;&lt;/font&gt;" style="shape=tape;whiteSpace=wrap;html=1;strokeWidth=6;size=0.19;dashed=1;sketch=0;fillColor=none;fontColor=#ffffff;strokeColor=#6F0000;fontSize=22;" vertex="1" parent="1">
                    <mxGeometry x="1622.5" y="462.5" width="315" height="207.5" as="geometry"/>
                </mxCell>
                <mxCell id="13" value="" style="edgeStyle=none;html=1;strokeColor=#000000;strokeWidth=5;fontSize=22;fontColor=#000000;" edge="1" parent="1" source="10" target="9">
                    <mxGeometry relative="1" as="geometry"/>
                </mxCell>
                <mxCell id="10" value="" style="whiteSpace=wrap;html=1;fillColor=none;strokeWidth=6;fontColor=#ffffff;strokeColor=#6F0000;perimeterSpacing=4;dashed=1;" vertex="1" parent="1">
                    <mxGeometry x="710" y="310" width="835" height="70" as="geometry"/>
                </mxCell>
                <mxCell id="14" value="&lt;font style=&quot;font-size: 22px;&quot; color=&quot;#000000&quot;&gt;Listado con Scroll de los links ya publicados, editables y con el boton de remove.&lt;br&gt;&lt;/font&gt;" style="shape=tape;whiteSpace=wrap;html=1;strokeWidth=6;size=0.19;dashed=1;sketch=0;fillColor=none;fontColor=#ffffff;strokeColor=#005700;fontSize=22;" vertex="1" parent="1">
                    <mxGeometry x="1674.76" y="740" width="285.24" height="180" as="geometry"/>
                </mxCell>
            </root>
        </mxGraphModel>
    </diagram>
</mxfile>